<svg width="169" height="168" viewBox="0 0 169 168" fill="none" xmlns="http://www.w3.org/2000/svg">
<path d="M84.5 105.818C96.6252 105.818 106.455 96.0498 106.455 84C106.455 71.9501 96.6252 62.1818 84.5 62.1818C72.3748 62.1818 62.5455 71.9501 62.5455 84C62.5455 96.0498 72.3748 105.818 84.5 105.818Z" stroke="#2B75FF" stroke-width="7" stroke-linecap="round" stroke-linejoin="round"/>
<path d="M138.655 105.818C137.68 108.012 137.39 110.445 137.82 112.804C138.251 115.164 139.382 117.341 141.07 119.055L141.509 119.491C142.869 120.842 143.949 122.446 144.686 124.212C145.422 125.978 145.801 127.87 145.801 129.782C145.801 131.693 145.422 133.586 144.686 135.352C143.949 137.118 142.869 138.722 141.509 140.073C140.149 141.425 138.535 142.498 136.758 143.23C134.981 143.962 133.077 144.339 131.153 144.339C129.23 144.339 127.325 143.962 125.549 143.23C123.772 142.498 122.157 141.425 120.798 140.073L120.359 139.636C118.634 137.96 116.444 136.835 114.07 136.407C111.696 135.979 109.247 136.268 107.04 137.236C104.876 138.158 103.03 139.689 101.729 141.64C100.429 143.591 99.7312 145.878 99.7218 148.218V149.455C99.7218 153.312 98.1798 157.012 95.4349 159.74C92.6901 162.468 88.9673 164 85.0855 164C81.2036 164 77.4808 162.468 74.736 159.74C71.9911 157.012 70.4491 153.312 70.4491 149.455V148.8C70.3924 146.393 69.6084 144.058 68.1988 142.1C66.7893 140.141 64.8195 138.649 62.5455 137.818C60.3382 136.85 57.8897 136.561 55.5157 136.989C53.1417 137.417 50.9511 138.542 49.2264 140.218L48.7873 140.655C47.4279 142.007 45.8137 143.08 44.0369 143.812C42.2601 144.544 40.3555 144.921 38.432 144.921C36.5086 144.921 34.604 144.544 32.8272 143.812C31.0504 143.08 29.4361 142.007 28.0768 140.655C26.716 139.304 25.6364 137.699 24.8999 135.934C24.1633 134.168 23.7842 132.275 23.7842 130.364C23.7842 128.452 24.1633 126.559 24.8999 124.794C25.6364 123.028 26.716 121.424 28.0768 120.073L28.5159 119.636C30.203 117.922 31.3348 115.745 31.7652 113.386C32.1957 111.027 31.9051 108.594 30.9309 106.4C30.0032 104.249 28.4629 102.414 26.4995 101.122C24.5361 99.83 22.2353 99.1366 19.8805 99.1273H18.6364C14.7546 99.1273 11.0317 97.5948 8.28689 94.867C5.54204 92.1392 4 88.4395 4 84.5818C4 80.7241 5.54204 77.0244 8.28689 74.2966C11.0317 71.5688 14.7546 70.0364 18.6364 70.0364H19.295C21.7173 69.9801 24.0665 69.2009 26.0372 67.8001C28.008 66.3993 29.5091 64.4417 30.3455 62.1818C31.3196 59.9882 31.6102 57.555 31.1798 55.1957C30.7493 52.8365 29.6176 50.6595 27.9305 48.9454L27.4914 48.5091C26.1305 47.1582 25.051 45.554 24.3144 43.7882C23.5778 42.0224 23.1987 40.1297 23.1987 38.2182C23.1987 36.3067 23.5778 34.4139 24.3144 32.6481C25.051 30.8823 26.1305 29.2782 27.4914 27.9273C28.8507 26.5749 30.4649 25.502 32.2417 24.77C34.0186 24.0381 35.9231 23.6613 37.8466 23.6613C39.77 23.6613 41.6746 24.0381 43.4514 24.77C45.2283 25.502 46.8425 26.5749 48.2018 27.9273L48.6409 28.3636C50.3657 30.0403 52.5563 31.165 54.9302 31.5928C57.3042 32.0205 59.7527 31.7317 61.96 30.7636H62.5455C64.7099 29.8417 66.5559 28.3109 67.8562 26.3597C69.1565 24.4085 69.8542 22.1221 69.8636 19.7818V18.5455C69.8636 14.6878 71.4057 10.9881 74.1505 8.26026C76.8954 5.53246 80.6182 4 84.5 4C88.3818 4 92.1046 5.53246 94.8495 8.26026C97.5943 10.9881 99.1364 14.6878 99.1364 18.5455V19.2C99.1458 21.5403 99.8435 23.8267 101.144 25.7779C102.444 27.7291 104.29 29.2599 106.455 30.1818C108.662 31.1499 111.11 31.4387 113.484 31.0109C115.858 30.5832 118.049 29.4584 119.774 27.7818L120.213 27.3455C121.572 25.9931 123.186 24.9202 124.963 24.1882C126.74 23.4562 128.645 23.0795 130.568 23.0795C132.491 23.0795 134.396 23.4562 136.173 24.1882C137.95 24.9202 139.564 25.9931 140.923 27.3455C142.284 28.6963 143.364 30.3005 144.1 32.0663C144.837 33.8321 145.216 35.7249 145.216 37.6364C145.216 39.5479 144.837 41.4406 144.1 43.2064C143.364 44.9722 142.284 46.5764 140.923 47.9273L140.484 48.3636C138.797 50.0777 137.665 52.2547 137.235 54.6139C136.804 56.9731 137.095 59.4064 138.069 61.6V62.1818C138.997 64.3329 140.537 66.1674 142.501 67.4596C144.464 68.7518 146.765 69.4452 149.12 69.4545H150.364C154.245 69.4545 157.968 70.987 160.713 73.7148C163.458 76.4426 165 80.1423 165 84C165 87.8577 163.458 91.5574 160.713 94.2852C157.968 97.013 154.245 98.5454 150.364 98.5454H149.705C147.35 98.5548 145.049 99.2482 143.086 100.54C141.123 101.833 139.582 103.667 138.655 105.818Z" stroke="#2B75FF" stroke-width="7" stroke-linecap="round" stroke-linejoin="round"/>
</svg>
