<svg width="216" height="268" viewBox="0 0 216 268" fill="none" xmlns="http://www.w3.org/2000/svg">
<path d="M212.119 198.923L212.166 198.889L188.852 149.297L182.203 99.8133C181.933 97.7949 180.525 96.3125 178.875 96.3125H158.625V83.75H189C190.866 83.75 192.375 81.8782 192.375 79.5625C192.375 65.7061 183.293 54.4375 172.125 54.4375H124.875C113.707 54.4375 104.625 65.7061 104.625 79.5625V96.3125H87.75V83.75C87.75 81.4343 86.2414 79.5625 84.375 79.5625H77.625V62.8125H97.875C99.7414 62.8125 101.25 60.9407 101.25 58.625V8.375C101.25 6.05931 99.7414 4.1875 97.875 4.1875H37.125C35.2586 4.1875 33.75 6.05931 33.75 8.375V58.625C33.75 60.9407 35.2586 62.8125 37.125 62.8125H57.375V79.5625H50.625C48.7586 79.5625 47.25 81.4343 47.25 83.75V96.3125H37.125C35.4746 96.3125 34.0672 97.7949 33.7972 99.8133L27.1485 149.297L3.834 198.889L3.88125 198.923C3.58762 199.547 3.375 200.229 3.375 201V259.625C3.375 261.941 4.88363 263.812 6.75 263.812H209.25C211.116 263.812 212.625 261.941 212.625 259.625V201C212.625 200.229 212.412 199.547 212.119 198.923ZM33.75 205.188H182.25V221.938H33.75V205.188ZM12.6259 196.812L32.3123 154.938H183.688L203.374 196.812H12.6259ZM172.125 62.8125C178.403 62.8125 183.698 68.1558 185.196 75.375H159.104C160.613 68.1683 165.851 62.8125 172.125 62.8125ZM124.875 62.8125H157.042C153.832 67.2596 151.875 73.1347 151.875 79.5625V121.438H111.375V79.5625C111.375 70.3249 117.43 62.8125 124.875 62.8125ZM40.5 12.5625H94.5V54.4375H40.5V12.5625ZM64.125 62.8125H70.875V79.5625H64.125V62.8125ZM54 87.9375H81V96.3125H54V87.9375ZM39.9836 104.688H104.625V121.438H97.875V129.812H165.375V121.438H158.625V104.688H176.016L181.639 146.562H34.3575L39.9836 104.688ZM205.875 255.438H10.125V205.188H27V226.125C27 228.441 28.5086 230.312 30.375 230.312H185.625C187.491 230.312 189 228.441 189 226.125V205.188H205.875V255.438Z" fill="#2B75FF"/>
<path d="M108 251.25C111.728 251.25 114.75 247.5 114.75 242.875C114.75 238.25 111.728 234.5 108 234.5C104.272 234.5 101.25 238.25 101.25 242.875C101.25 247.5 104.272 251.25 108 251.25Z" fill="#2B75FF"/>
<path d="M84.375 20.9375H50.625C48.7586 20.9375 47.25 22.8093 47.25 25.125V41.875C47.25 44.1907 48.7586 46.0625 50.625 46.0625H84.375C86.2414 46.0625 87.75 44.1907 87.75 41.875V25.125C87.75 22.8093 86.2414 20.9375 84.375 20.9375ZM81 37.6875H54V29.3125H81V37.6875Z" fill="#2B75FF"/>
<path d="M50.625 138.188H84.375C86.2414 138.188 87.75 136.316 87.75 134V117.25C87.75 114.934 86.2414 113.062 84.375 113.062H50.625C48.7586 113.062 47.25 114.934 47.25 117.25V134C47.25 136.316 48.7586 138.188 50.625 138.188ZM54 121.438H81V129.812H54V121.438Z" fill="#2B75FF"/>
<path d="M37.125 163.312H64.125V171.688H37.125V163.312Z" fill="#2B75FF"/>
<path d="M70.875 163.312H97.875V171.688H70.875V163.312Z" fill="#2B75FF"/>
<path d="M64.125 180.062H91.125V188.438H64.125V180.062Z" fill="#2B75FF"/>
<path d="M27 180.062H54V188.438H27V180.062Z" fill="#2B75FF"/>
<path d="M151.875 163.312H178.875V171.688H151.875V163.312Z" fill="#2B75FF"/>
<path d="M118.125 163.312H145.125V171.688H118.125V163.312Z" fill="#2B75FF"/>
<path d="M124.875 180.062H151.875V188.438H124.875V180.062Z" fill="#2B75FF"/>
<path d="M162 180.062H189V188.438H162V180.062Z" fill="#2B75FF"/>
<path d="M97.875 180.062H118.125V188.438H97.875V180.062Z" fill="#2B75FF"/>
<path d="M121.5 75.375H128.25V83.75H121.5V75.375Z" fill="#2B75FF"/>
<path d="M135 75.375H141.75V83.75H135V75.375Z" fill="#2B75FF"/>
<path d="M118.125 92.125H145.125V100.5H118.125V92.125Z" fill="#2B75FF"/>
</svg>
