<svg width="160" height="160" viewBox="0 0 160 160" fill="none" xmlns="http://www.w3.org/2000/svg">
<path d="M73.0358 136.212L68.8043 124.581L58.6898 92.5192L57.7521 88.3571C48.6983 93.0178 43.6648 97.3971 40.1422 106.983C38.9209 110.306 38.3645 113.352 38.8479 116.908C38.989 117.945 38.7084 118.317 39.6735 118.424C44.6482 118.972 48.8017 122.633 50.2511 127.403C50.9069 129.561 51.6605 133.969 51.4133 136.264C51.0717 139.437 48.6362 142.835 45.3314 143.236C44.0011 143.397 42.2681 143.374 41.191 142.476C39.925 141.421 39.7876 139.517 40.9445 138.315C42.2534 136.955 43.9267 137.414 45.6053 137.341C46.9696 136.214 45.8491 131.046 45.3841 129.56C43.1491 122.419 34.9209 121.417 31.4347 128.403C30.6874 129.901 28.8561 135.877 29.3454 137.334C30.1137 137.602 31.424 137.43 32.2603 137.432C37.3237 137.441 35.0881 146.022 27.7167 142.609C23.1908 140.514 23.6301 135.734 24.6586 131.8C26.0744 126.386 28.2279 121.167 33.9642 119.099L33.5883 117.161C32.6933 110.266 35.3659 101.994 39.6094 96.5073C38.0246 97.1683 36.359 97.6169 34.7168 98.1115C22.6459 101.746 17.8813 107.408 13.455 118.464L11.6268 123.12L9.12146 131.428C7.92876 135.882 6.90713 140.445 6.27746 145.016L5.2237 156.378C5.20789 156.844 5.22807 157.354 5.12022 157.807L5.03693 158.161C4.48258 160.171 1.30553 160.375 0.307613 158.325C-0.12311 157.44 0.0163948 156.279 0.0412468 155.324L1.14464 143.567C2.10199 136.923 3.70633 130.221 5.84283 123.859C11.238 107.792 15.79 98.7408 32.0731 93.2666L41.4382 90.3545C43.0704 89.8612 44.745 89.433 46.3295 88.8007C50.2584 87.2329 53.6977 84.4061 57.4949 82.5165C57.2714 79.7797 58.0052 74.9142 56.8023 72.7915L54.1297 67.5448L52.6883 63.9016C51.6071 60.8624 51.9153 62.197 50.3218 60.1787C45.9749 54.6715 39.949 34.9511 51.4553 36.4982L48.3183 17.1196C47.8273 11.5787 49.8852 10.9286 54.2441 8.24108C61.7357 3.62192 69.302 0.709824 78.2074 0.066394C88.4884 -0.560694 97.9282 3.32463 106.415 8.74631C112.861 12.8638 112.045 13.4346 111.066 20.2125L108.91 33.9255C108.222 38.088 108.287 35.5154 111.253 36.5389L111.371 36.5822C114.624 37.7332 115.079 41.0996 115.075 44.0741C115.069 48.8302 113.684 52.9646 111.606 57.1928C110.678 59.0814 110.168 60.6309 108.108 61.449C106.867 61.9416 106.907 64.6293 106.39 66.1527C105.584 68.532 104.275 71.173 102.892 73.2787C102.326 74.1402 102.551 74.9943 102.553 75.9844L102.556 81.0194C102.555 81.4432 102.266 82.2687 102.69 82.4661C106.882 84.4188 110.277 87.456 114.92 89.2542C117.075 90.089 119.345 90.6446 121.561 91.2926L129.212 93.6395C144.271 99.0586 149.419 109.377 154.042 123.826C156.915 132.807 159.075 142.22 159.725 151.645L159.939 155.779C159.966 156.468 160.059 157.246 159.943 157.926C159.546 160.264 156.252 160.247 155.155 158.468L155.094 158.367C154.72 157.757 154.743 156.815 154.716 156.114L154.588 153.159C153.751 143.316 151.781 133.719 148.632 124.348L146.348 118.01C142.445 108.41 138.059 102.732 128.332 99.0423C125.706 98.0464 122.928 97.4198 120.345 96.3272C121.532 98.1445 122.768 99.7783 123.575 101.826C125.854 107.609 124.4 117.673 123.743 123.737C135.195 127.899 133.58 144.987 121.26 146.696C117.995 147.148 114.756 146.114 112.171 144.131C103.911 137.793 108.15 124.346 118.384 123.005L118.942 118.394C119.245 115.788 119.416 113.137 119.42 110.515C119.437 97.3354 111.462 94.4552 102.178 88.1347L100.689 94.6283L88.5948 132.022L84.2666 142.704C82.9483 145.784 82.62 145.164 82.6127 148.612L82.6067 154.859C82.603 155.834 82.7334 157.07 82.4953 158.007C81.9495 160.153 78.8359 160.837 77.7714 158.697C77.0712 157.289 77.3131 155.169 77.3091 153.624L77.2954 148.481C77.2894 147.518 77.4251 146.273 76.9611 145.403L73.0358 136.212ZM79.6618 5.24048C70.4386 5.59409 60.6476 9.56006 53.4772 15.306L55.0851 27.0974C57.8421 27.1251 60.5024 27.1676 63.1998 27.8414C69.1146 29.3189 74.2938 32.6749 80.5545 32.6276C88.8864 32.4428 95.0984 26.5933 104.78 27.0962L106.447 15.1579C100.001 9.68062 87.872 4.8965 79.6618 5.24048ZM56.4547 32.3838C56.9418 35.4984 59.2438 48.7508 55.3623 49.2577C51.016 49.8257 52.9338 43.16 51.6408 41.7326C49.8658 40.9431 50.2197 43.4164 50.2438 44.4673C50.3225 47.9124 51.2041 51.732 53.0449 54.7049L53.2777 55.0477C55.4837 55.2785 56.0181 55.7771 56.4461 57.8985C57.5145 63.1936 60.1315 68.4989 63.3599 72.7805C66.2024 76.5501 73.3464 82.9587 78.059 83.6734C85.4432 84.7936 93.0542 77.4755 97.1366 72.0224C99.5094 68.7594 101.481 65.0312 102.662 61.1685C103.145 59.592 103.391 55.4959 105.469 55.1211L106.878 55.0234C108.297 52.4747 109.147 49.7563 109.674 46.8995C109.822 46.0955 110.055 42.6547 109.608 42.1164C109.317 41.7669 108.686 41.7052 108.267 41.6922C107.361 42.5356 108.291 47.138 106.218 49.05C105.198 49.9911 104.032 49.4302 103.25 48.4667C102.191 47.163 102.5 45.4118 102.532 43.8673L102.566 40.1254C102.634 38.7854 102.831 37.4273 103 36.0957L103.465 32.4771C96.4221 32.6996 93.0792 35.1515 86.7351 36.9781C81.1443 38.5876 76.5034 38.0467 71.1621 36.2271L64.1268 33.6788C61.6003 32.889 59.1054 32.4104 56.4547 32.3838ZM62.4926 79.584L62.7358 85.1238C62.7625 86.2427 62.7815 86.1306 63.6028 86.8543L67.4874 90.4018C77.5676 98.8485 85.1243 97.7686 94.6234 88.4755C95.4296 87.6868 96.2889 86.8964 96.9888 86.0116C97.2627 85.6687 97.1679 85.5143 97.1746 85.0741L97.4068 79.6587C86.4055 91.3243 76.2896 92.8444 64.335 81.4389L62.4926 79.584ZM64.5498 94.679L80.0544 139.373L85.9138 123.37L95.2722 94.9345C84.4374 103.599 75.0821 104.08 64.5498 94.679ZM119.209 128.632C110.692 129.707 111.513 141.563 120.29 141.353C128.944 140.093 127.158 127.971 119.209 128.632Z" fill="#2B75FF"/>
</svg>
