<svg id="Outline" height="512" viewBox="0 0 32 32" width="512" xmlns="http://www.w3.org/2000/svg"><g><path d="m28 8h-24c-.27295 0-.53418.11133-.72266.30859-.18896.19727-.28857.46387-.27636.73633l.90527 20.10449c.07959 1.59864 1.396 2.85059 2.99609 2.85059h18.19531c1.60059 0 2.91699-1.25195 2.99609-2.85547l.90527-20.09961c.0127-.27246-.08789-.53906-.27637-.73633s-.4492-.30859-.72264-.30859zm-1.9043 21.0498c-.02636.53321-.46484.9502-.99804.9502h-18.19532c-.5332 0-.97217-.41699-.99854-.94531l-.8579-19.05469h21.9082z"/><path d="m10.7334 26c.01465 0 .0293 0 .04395-.00098.55176-.02344.97998-.49023.95605-1.04199l-.47168-11c-.02344-.55176-.49072-.98047-1.04199-.95605-.55176.02344-.97998.49023-.95605 1.04199l.47168 11c.02294.53711.46581.95703.99804.95703z"/><path d="m21.22168 25.99902c.01465.00098.0293.00098.04395.00098.53223 0 .97461-.41992.99805-.95703l.47266-11c.02344-.55176-.4043-1.01855-.95605-1.04199-.54395-.02246-1.01758.4043-1.04199.95605l-.47266 11c-.02345.55176.40428 1.01856.95604 1.04199z"/><path d="m29 4h-6v-1c0-1.6543-1.3457-3-3-3h-8c-1.6543 0-3 1.3457-3 3v1h-6c-.55225 0-1 .44727-1 1s.44775 1 1 1h7 12 7c.55273 0 1-.44727 1-1s-.44727-1-1-1zm-18 0v-1c0-.55176.44873-1 1-1h8c.55176 0 1 .44824 1 1v1z"/><path d="m16 26c.55225 0 1-.44727 1-1v-11c0-.55273-.44775-1-1-1s-1 .44727-1 1v11c0 .55273.44775 1 1 1z"/></g></svg>