<svg width="160" height="160" viewBox="0 0 160 160" fill="none" xmlns="http://www.w3.org/2000/svg">
<path d="M131.537 64.1653C135.047 62.2531 138.018 59.4872 140.177 56.1231C142.336 52.7589 143.612 48.905 143.888 44.9173C145.474 44.3796 146.852 43.3593 147.828 41.9992C148.805 40.6392 149.331 39.0076 149.334 37.3333V26.6667C149.326 19.5966 146.514 12.8183 141.515 7.81906C136.516 2.81977 129.738 0.00776426 122.668 0L117.334 0C110.265 0.00776426 103.486 2.81977 98.4873 7.81906C93.4882 12.8183 90.6762 19.5966 90.6685 26.6667V37.3333C90.6711 39.0076 91.1975 40.6392 92.174 41.9992C93.1505 43.3593 94.5281 44.3796 96.1137 44.9173C96.3891 48.9042 97.6646 52.7574 99.8225 56.121C101.98 59.4847 104.951 62.2504 108.46 64.1627C106.501 64.3221 104.556 64.6206 102.639 65.056C100.146 62.213 97.0747 59.9346 93.631 58.373C90.1872 56.8113 86.45 56.0023 82.6687 56H77.3355C74.856 56.006 72.3895 56.3587 70.0077 57.048C67.4736 51.7383 66.325 45.8734 66.6691 40V29.3333C66.6691 21.5536 63.5787 14.0926 58.0778 8.59153C52.5769 3.09047 45.116 0 37.3365 0C29.557 0 22.0962 3.09047 16.5953 8.59153C11.0943 14.0926 8.00395 21.5536 8.00395 29.3333V40C8.00395 53.1627 4.37205 58.3493 2.22811 60.2667C0.917043 61.4682 0.123051 63.1314 0.013142 64.9064C-0.0967669 66.6814 0.485974 68.4299 1.63879 69.784C3.53562 71.6642 5.82883 73.0965 8.35061 73.976C3.6094 78.3013 0.00416299 85.1253 0.00416299 96V98.6667C0.00416299 100.788 0.846996 102.823 2.34725 104.324C3.8475 105.824 5.88228 106.667 8.00395 106.667H57.336C58.1838 109.553 59.6082 112.238 61.5232 114.558C63.4381 116.878 65.8038 118.786 68.477 120.165C54.6241 121.333 40.0031 129.392 40.0031 149.333V152C40.0031 154.122 40.846 156.157 42.3462 157.657C43.8465 159.157 45.8812 160 48.0029 160H112.001C114.123 160 116.158 159.157 117.658 157.657C119.158 156.157 120.001 154.122 120.001 152V149.333C120.001 129.392 105.38 121.32 91.5378 120.165C94.2091 118.784 96.5727 116.876 98.4857 114.556C100.399 112.236 101.822 109.552 102.668 106.667H152C154.122 106.667 156.157 105.824 157.657 104.324C159.157 102.823 160 100.788 160 98.6667V93.3333C160 73.392 145.379 65.3333 131.537 64.1653ZM96.0017 26.6667C96.008 21.0107 98.2576 15.5881 102.257 11.5887C106.256 7.58934 111.679 5.33969 117.334 5.33333H122.668C128.324 5.33969 133.746 7.58934 137.745 11.5887C141.744 15.5881 143.994 21.0107 144 26.6667V29.808C143.912 29.776 143.83 29.7307 143.734 29.704C143.229 27.5309 142.036 25.5788 140.333 24.1375C138.63 22.6963 136.507 21.8429 134.281 21.704C129.691 21.6009 125.291 19.8541 121.881 16.7813C121.381 16.2814 120.703 16.0006 119.996 16.0006C119.289 16.0006 118.61 16.2814 118.11 16.7813C114.701 19.8552 110.3 21.6021 105.711 21.704C103.484 21.8433 101.362 22.6969 99.659 24.138C97.9561 25.5792 96.7633 27.5311 96.2577 29.704C96.167 29.7307 96.0843 29.776 95.991 29.808L96.0017 26.6667ZM101.335 42.6667C101.335 41.9594 101.054 41.2811 100.554 40.7811C100.054 40.281 99.3755 40 98.6683 40C97.961 40 97.2828 39.719 96.7827 39.219C96.2826 38.7189 96.0017 38.0406 96.0017 37.3333C96.0017 36.6261 96.2826 35.9478 96.7827 35.4477C97.2828 34.9476 97.961 34.6667 98.6683 34.6667C99.3755 34.6667 100.054 34.3857 100.554 33.8856C101.054 33.3855 101.335 32.7072 101.335 32C101.342 30.7273 101.833 29.505 102.709 28.5813C103.585 27.6577 104.779 27.1018 106.049 27.0267C111.077 26.8534 115.938 25.1748 120.001 22.208C124.064 25.1748 128.925 26.8534 133.953 27.0267C135.223 27.1018 136.417 27.6577 137.293 28.5813C138.169 29.505 138.66 30.7273 138.667 32C138.667 32.7072 138.948 33.3855 139.448 33.8856C139.948 34.3857 140.627 34.6667 141.334 34.6667C142.041 34.6667 142.719 34.9476 143.219 35.4477C143.719 35.9478 144 36.6261 144 37.3333C144 38.0406 143.719 38.7189 143.219 39.219C142.719 39.719 142.041 40 141.334 40C140.627 40 139.948 40.281 139.448 40.7811C138.948 41.2811 138.667 41.9594 138.667 42.6667C138.667 43.4293 138.355 61.3333 120.001 61.3333C101.647 61.3333 101.335 43.4213 101.335 42.6667ZM125.334 66.1893V66.6667C125.334 68.0812 124.772 69.4377 123.772 70.4379C122.772 71.4381 121.415 72 120.001 72C118.587 72 117.23 71.4381 116.23 70.4379C115.23 69.4377 114.668 68.0812 114.668 66.6667V66.1813C118.194 66.8284 121.808 66.8284 125.334 66.1813V66.1893ZM77.3355 61.3333H82.6687C88.3245 61.3397 93.7469 63.5893 97.7462 67.5887C101.746 71.5881 103.995 77.0107 104.001 82.6667V85.808C103.913 85.776 103.831 85.7307 103.735 85.704C103.229 83.5305 102.036 81.578 100.333 80.1368C98.6293 78.6955 96.5062 77.8423 94.279 77.704C89.6903 77.6019 85.2909 75.855 81.882 72.7813C81.382 72.2814 80.7038 72.0006 79.9967 72.0006C79.2897 72.0006 78.6115 72.2814 78.1115 72.7813C74.7029 75.8554 70.3033 77.6024 65.7145 77.704C63.4875 77.8427 61.3646 78.6961 59.6611 80.1373C57.9577 81.5785 56.7644 83.5307 56.2587 85.704C56.168 85.7307 56.0854 85.776 55.992 85.808V82.6667C55.9984 77.0088 58.2495 71.5847 62.2511 67.585C66.2527 63.5853 71.6778 61.3369 77.3355 61.3333ZM65.0318 59.032C61.0353 61.1214 57.6294 64.1835 55.1281 67.936C52.7984 67.3077 50.4112 66.9164 48.0029 66.768V65.4347H47.9016C53.4454 60.6204 57.7789 54.5694 60.5519 47.7707C60.9619 47.6696 61.3632 47.5358 61.7519 47.3707C62.1349 51.4234 63.246 55.3738 65.0318 59.032ZM13.3371 29.3333C13.3371 22.9681 15.8656 16.8636 20.3664 12.3628C24.8672 7.8619 30.9715 5.33333 37.3365 5.33333C43.7016 5.33333 49.8059 7.8619 54.3066 12.3628C58.8074 16.8636 61.3359 22.9681 61.3359 29.3333V32.4747C61.2612 32.448 61.1919 32.408 61.1146 32.384C59.8777 27.8799 57.0398 23.9819 53.1334 21.4213C51.8069 20.4605 50.2448 19.8771 48.6132 19.7329C46.9816 19.5888 45.3415 19.8893 43.867 20.6027C37.7466 22.9954 31.2388 24.2437 24.6675 24.2853L23.0676 24.3787C20.8408 24.5131 18.7169 25.3628 17.0117 26.8013C15.3066 28.2398 14.1114 30.1903 13.6038 32.3627C13.5105 32.392 13.4331 32.448 13.3371 32.48V29.3333ZM14.1558 38.0987C14.3966 37.8535 14.6843 37.6593 15.0018 37.5278C15.3194 37.3963 15.6601 37.3302 16.0037 37.3333C16.711 37.3333 17.3892 37.0524 17.8893 36.5523C18.3894 36.0522 18.6703 35.3739 18.6703 34.6667C18.6781 33.3913 19.1726 32.167 20.0529 31.2441C20.9331 30.3211 22.1326 29.7693 23.4062 29.7013L24.9555 29.6107C32.2151 29.5509 39.3992 28.1317 46.1363 25.4267C46.6729 25.1745 47.258 25.0425 47.8509 25.04C48.6121 25.034 49.3552 25.2723 49.9709 25.72C52.2241 27.3787 56.0027 30.744 56.0027 34.6667C56.0027 35.3739 56.2836 36.0522 56.7837 36.5523C57.2838 37.0524 57.9621 37.3333 58.6693 37.3333C59.3765 37.3333 60.0548 37.6143 60.5549 38.1144C61.055 38.6145 61.3359 39.2928 61.3359 40C61.3359 40.7072 61.055 41.3855 60.5549 41.8856C60.0548 42.3857 59.3765 42.6667 58.6693 42.6667C58.1264 42.6661 57.5964 42.8313 57.1499 43.1401C56.7034 43.4488 56.3618 43.8865 56.1707 44.3947C54.1361 49.848 46.7576 64 37.3365 64C27.9154 64 20.553 49.848 18.5023 44.3947C18.3113 43.8865 17.9697 43.4488 17.5232 43.1401C17.0767 42.8313 16.5466 42.6661 16.0037 42.6667C15.2965 42.6667 14.6183 42.3857 14.1182 41.8856C13.6181 41.3855 13.3371 40.7072 13.3371 40C13.3364 39.644 13.4087 39.2916 13.5495 38.9645C13.6903 38.6375 13.8967 38.3428 14.1558 38.0987ZM42.6697 68.3387V69.3333C42.7177 70.0461 42.6127 70.7609 42.3617 71.4298C42.1106 72.0986 41.7194 72.706 41.2143 73.2112C40.7091 73.7163 40.1017 74.1076 39.4329 74.3586C38.7641 74.6097 38.0493 74.7147 37.3365 74.6667C36.6238 74.7147 35.909 74.6097 35.2401 74.3586C34.5713 74.1076 33.9639 73.7163 33.4588 73.2112C32.9536 72.706 32.5624 72.0986 32.3114 71.4298C32.0603 70.7609 31.9553 70.0461 32.0033 69.3333V68.3387C35.4351 69.665 39.2379 69.665 42.6697 68.3387ZM5.68402 66.2907C5.4497 66.0009 5.32726 65.6366 5.33901 65.2641C5.35075 64.8916 5.4959 64.5358 5.74801 64.2613C8.55861 61.7653 11.8065 56.8773 12.9292 47.3787C13.3153 47.5425 13.7139 47.6754 14.1211 47.776C16.8941 54.5747 21.2277 60.6257 26.7715 65.44H26.6701V66.7733C22.2109 67.0613 17.8514 68.2209 13.8385 70.1867C10.8373 69.5902 8.03368 68.2507 5.68402 66.2907ZM8.00395 101.333C7.29673 101.333 6.61847 101.052 6.11839 100.552C5.6183 100.052 5.33736 99.3739 5.33736 98.6667V96C5.33736 76.8533 17.9664 72.6533 26.9768 72.0853C27.4319 74.1146 28.5118 75.9501 30.0647 77.3333C32.08 79.0833 34.6677 80.0322 37.3365 80C39.7061 80.0677 42.0267 79.318 43.9088 77.8768C45.7909 76.4356 47.1198 74.3906 47.6723 72.0853C49.3264 72.1915 50.9697 72.4278 52.5868 72.792C51.3233 75.931 50.6725 79.2829 50.6695 82.6667V93.3333C50.6721 95.0076 51.1986 96.6392 52.175 97.9992C53.1515 99.3593 54.5291 100.38 56.1147 100.917C56.1147 101.051 56.152 101.184 56.168 101.333H8.00395ZM70.6877 125.357L76.2315 132.749L71.8343 135.888L66.7384 125.715C68.048 125.529 69.3661 125.41 70.6877 125.357ZM80.0021 128.888L75.0102 122.235C78.3132 122.811 81.6909 122.811 84.9939 122.235L80.0021 128.888ZM83.77 139.301L83.258 141.333H76.7462L76.2342 139.299L80.0021 136.611L83.77 139.301ZM69.8157 154.667H48.0029C47.2957 154.667 46.6174 154.386 46.1173 153.886C45.6173 153.386 45.3363 152.707 45.3363 152V149.333C45.3363 135.075 53.7014 129.253 61.3626 126.899L67.1891 138.525C67.5206 139.189 67.9938 139.772 68.5753 140.233C69.1568 140.694 69.8324 141.021 70.5543 141.192C70.7777 141.236 71.0042 141.263 71.2316 141.272L71.9356 144.069L69.8157 154.667ZM75.2555 154.667L76.8555 146.667H83.1487L84.7486 154.667H75.2555ZM114.668 149.333V152C114.668 152.707 114.387 153.386 113.887 153.886C113.387 154.386 112.708 154.667 112.001 154.667H90.1885L88.0552 144.069L88.7592 141.28C88.9867 141.267 89.2131 141.237 89.4365 141.192C90.1585 141.021 90.8341 140.694 91.4156 140.233C91.9971 139.772 92.4703 139.189 92.8018 138.525L98.6283 126.896C106.303 129.253 114.668 135.075 114.668 149.333ZM93.2657 125.715L88.1699 135.888L83.7727 132.749L89.3165 125.357C90.6381 125.41 91.9562 125.529 93.2657 125.715ZM101.335 96C100.628 96 99.9494 96.281 99.4493 96.7811C98.9492 97.2811 98.6683 97.9594 98.6683 98.6667C98.6683 99.4293 98.3563 117.333 80.0021 117.333C61.6479 117.333 61.3359 99.4213 61.3359 98.6667C61.3359 97.9594 61.055 97.2811 60.5549 96.7811C60.0548 96.281 59.3765 96 58.6693 96C57.9621 96 57.2838 95.7191 56.7837 95.219C56.2836 94.7189 56.0027 94.0406 56.0027 93.3333C56.0027 92.6261 56.2836 91.9478 56.7837 91.4477C57.2838 90.9476 57.9621 90.6667 58.6693 90.6667C59.3765 90.6667 60.0548 90.3857 60.5549 89.8856C61.055 89.3855 61.3359 88.7072 61.3359 88C61.3432 86.7273 61.8345 85.505 62.7101 84.5813C63.5857 83.6577 64.78 83.1018 66.0504 83.0267C71.0788 82.855 75.9396 81.1762 80.0021 78.208C84.0648 81.1758 88.9254 82.8546 93.9537 83.0267C95.2242 83.1018 96.4185 83.6577 97.2941 84.5813C98.1697 85.505 98.661 86.7273 98.6683 88C98.6683 88.7072 98.9492 89.3855 99.4493 89.8856C99.9494 90.3857 100.628 90.6667 101.335 90.6667C102.042 90.6667 102.72 90.9476 103.22 91.4477C103.721 91.9478 104.001 92.6261 104.001 93.3333C104.001 94.0406 103.721 94.7189 103.22 95.219C102.72 95.7191 102.042 96 101.335 96ZM154.667 98.6667C154.667 99.3739 154.386 100.052 153.886 100.552C153.386 101.052 152.707 101.333 152 101.333H103.836C103.852 101.197 103.876 101.051 103.889 100.917C105.475 100.38 106.853 99.3593 107.829 97.9992C108.806 96.6392 109.332 95.0076 109.335 93.3333V82.6667C109.337 78.1757 108.2 73.7577 106.028 69.8267C107.209 69.6373 108.428 69.488 109.639 69.4107C110.092 71.4434 111.173 73.2821 112.729 74.6667C114.745 76.4166 117.332 77.3656 120.001 77.3333C122.371 77.4009 124.692 76.6508 126.574 75.2091C128.456 73.7674 129.785 71.7218 130.337 69.416C138.219 69.9067 154.667 73.3333 154.667 93.3333V98.6667Z" fill="#2B75FF"/>
</svg>
