<svg width="162" height="162" viewBox="0 0 162 162" fill="none" xmlns="http://www.w3.org/2000/svg">
<path d="M33.8555 36.3696C36.1532 36.3696 38.0222 37.9349 38.0222 39.8586C38.0222 41.6058 39.4391 43.0227 41.1863 43.0227C42.9335 43.0227 44.3504 41.6058 44.3504 39.8586C44.3504 35.4767 41.2648 31.7567 37.0195 30.4984V30.0586C37.0195 28.3114 35.6027 26.8945 33.8555 26.8945C32.1083 26.8945 30.6914 28.3114 30.6914 30.0586V30.4984C26.4462 31.7571 23.3606 35.4767 23.3606 39.8586C23.3606 45.272 28.0687 49.6758 33.8555 49.6758C36.1532 49.6758 38.0222 51.2407 38.0222 53.1645C38.0222 55.0882 36.1532 56.6535 33.8555 56.6535C31.5577 56.6535 29.6887 55.0882 29.6887 53.1645C29.6887 51.4173 28.2719 50.0004 26.5247 50.0004C24.7775 50.0004 23.3606 51.4173 23.3606 53.1645C23.3606 57.5464 26.4462 61.2664 30.6914 62.5247V62.9648C30.6914 64.712 32.1083 66.1289 33.8555 66.1289C35.6027 66.1289 37.0195 64.712 37.0195 62.9648V62.525C41.2648 61.2664 44.3504 57.5467 44.3504 53.1648C44.3504 47.7517 39.6422 43.348 33.8555 43.348C31.5577 43.348 29.6887 41.783 29.6887 39.8593C29.6887 37.9355 31.5577 36.3696 33.8555 36.3696Z" fill="#2B75FF"/>
<path d="M92.0742 92.6257C90.327 92.6257 88.9102 94.0426 88.9102 95.7898V141.75C88.9102 143.497 90.327 144.914 92.0742 144.914H107.262C109.009 144.914 110.426 143.497 110.426 141.75V95.7898C110.426 94.0426 109.009 92.6257 107.262 92.6257H92.0742ZM104.098 138.586H95.2383V98.9539H104.098V138.586Z" fill="#2B75FF"/>
<path d="M137.637 85.1133H122.449C120.702 85.1133 119.285 86.5301 119.285 88.2773V141.75C119.285 143.497 120.702 144.914 122.449 144.914H137.637C139.384 144.914 140.801 143.497 140.801 141.75V88.2773C140.801 86.5301 139.384 85.1133 137.637 85.1133ZM134.473 138.586H125.613V91.4414H134.473V138.586Z" fill="#2B75FF"/>
<path d="M61.6992 110.109C59.952 110.109 58.5352 111.526 58.5352 113.273V141.75C58.5352 143.497 59.952 144.914 61.6992 144.914H76.8867C78.6339 144.914 80.0508 143.497 80.0508 141.75V113.273C80.0508 111.526 78.6339 110.109 76.8867 110.109H61.6992ZM73.7227 138.586H64.8633V116.438H73.7227V138.586Z" fill="#2B75FF"/>
<path d="M61.6992 79.4043C59.952 79.4043 58.5352 80.8212 58.5352 82.5684C58.5352 84.3156 59.952 85.7325 61.6992 85.7325C77.3177 85.7325 92.8257 81.921 106.547 74.7108C117.102 69.1635 126.62 61.6103 134.473 52.6047V52.9411C134.473 54.6883 135.89 56.1051 137.637 56.1051C139.384 56.1051 140.801 54.6883 140.801 52.9411V43.5103C140.801 41.7631 139.384 40.3462 137.637 40.3462H128.206C126.459 40.3462 125.042 41.7631 125.042 43.5103C125.042 45.2575 126.459 46.6743 128.206 46.6743H131.21C114.168 67.2752 88.6305 79.4043 61.6992 79.4043Z" fill="#2B75FF"/>
<path d="M158.836 0H113.907C112.16 0 110.743 1.41687 110.743 3.16406C110.743 4.91126 112.16 6.32812 113.907 6.32812H155.672V155.672H43.6641V78.9165C57.5638 74.701 67.7109 61.7701 67.7109 46.5117C67.7109 31.2533 57.5638 18.3225 43.6641 14.107V6.32812H85.4303C87.1775 6.32812 88.5944 4.91126 88.5944 3.16406C88.5944 1.41687 87.1775 0 85.4303 0H40.5C38.7528 0 37.3359 1.41687 37.3359 3.16406V12.8341C36.1915 12.7167 35.0303 12.6562 33.8555 12.6562C15.1875 12.6562 0 27.8438 0 46.5117C0 65.1797 15.1875 80.3672 33.8555 80.3672C35.0303 80.3672 36.1915 80.3068 37.3359 80.1894V158.836C37.3359 160.583 38.7528 162 40.5 162H158.836C160.583 162 162 160.583 162 158.836V3.16406C162 1.41687 160.583 0 158.836 0ZM6.32812 46.5117C6.32812 31.3331 18.6768 18.9844 33.8555 18.9844C49.0341 18.9844 61.3828 31.3331 61.3828 46.5117C61.3828 61.6904 49.0341 74.0391 33.8555 74.0391C18.6768 74.0391 6.32812 61.6904 6.32812 46.5117Z" fill="#2B75FF"/>
<path d="M99.668 6.32812C100.503 6.32812 101.316 5.98957 101.905 5.40074C102.493 4.81254 102.832 3.99621 102.832 3.16406C102.832 2.33191 102.493 1.51559 101.905 0.92707C101.316 0.338238 100.5 0 99.668 0C98.8358 0 98.0195 0.338238 97.431 0.92707C96.8425 1.5159 96.5039 2.33191 96.5039 3.16406C96.5039 3.99621 96.8421 4.81254 97.431 5.40074C98.0195 5.98957 98.8358 6.32812 99.668 6.32812Z" fill="#2B75FF"/>
</svg>
