<svg width="160" height="160" viewBox="0 0 160 160" fill="none" xmlns="http://www.w3.org/2000/svg">
<path d="M4 160H156C157.061 160 158.078 159.578 158.828 158.828C159.578 158.078 160 157.061 160 156V60C160 58.9391 159.578 57.9217 158.828 57.1715C158.078 56.4214 157.061 56 156 56H136V20C136 18.9391 135.578 17.9217 134.828 17.1716C134.078 16.4214 133.061 16 132 16H112V12C112 8.8174 110.736 5.76515 108.485 3.51472C106.235 1.26428 103.183 0 99.9999 0H60C56.8174 0 53.7651 1.26428 51.5147 3.51472C49.2642 5.76515 48 8.8174 48 12V16H28C26.9391 16 25.9217 16.4214 25.1716 17.1716C24.4214 17.9217 24 18.9391 24 20V56H4C2.93913 56 1.92172 56.4214 1.17157 57.1715C0.421428 57.9217 0 58.9391 0 60V156C0 157.061 0.421428 158.078 1.17157 158.828C1.92172 159.578 2.93913 160 4 160ZM136 63.9999H152V152H136V63.9999ZM91.9999 152H67.9999V124H91.9999V152ZM56 12C56 10.9391 56.4214 9.92171 57.1715 9.17157C57.9217 8.42142 58.9391 7.99999 60 7.99999H99.9999C101.061 7.99999 102.078 8.42142 102.828 9.17157C103.578 9.92171 104 10.9391 104 12V52C104 53.0608 103.578 54.0782 102.828 54.8284C102.078 55.5785 101.061 56 99.9999 56H60C58.9391 56 57.9217 55.5785 57.1715 54.8284C56.4214 54.0782 56 53.0608 56 52V12ZM32 24H48V52C48 55.1826 49.2642 58.2348 51.5147 60.4852C53.7651 62.7357 56.8174 63.9999 60 63.9999H99.9999C103.183 63.9999 106.235 62.7357 108.485 60.4852C110.736 58.2348 112 55.1826 112 52V24H128V152H99.9999V120C99.9999 118.939 99.5785 117.922 98.8283 117.171C98.0782 116.421 97.0608 116 95.9999 116H63.9999C62.9391 116 61.9217 116.421 61.1715 117.171C60.4214 117.922 60 118.939 60 120V152H32V24ZM7.99999 63.9999H24V152H7.99999V63.9999Z" fill="#2B75FF"/>
<path d="M68 36H76V44C76 45.0608 76.4214 46.0783 77.1716 46.8284C77.9217 47.5785 78.9391 48 80 48C81.0609 48 82.0783 47.5785 82.8284 46.8284C83.5786 46.0783 84 45.0608 84 44V36H92C93.0608 36 94.0783 35.5786 94.8284 34.8284C95.5785 34.0783 96 33.0609 96 32C96 30.9391 95.5785 29.9217 94.8284 29.1716C94.0783 28.4214 93.0608 28 92 28H84V20C84 18.9391 83.5786 17.9217 82.8284 17.1716C82.0783 16.4214 81.0609 16 80 16C78.9391 16 77.9217 16.4214 77.1716 17.1716C76.4214 17.9217 76 18.9391 76 20V28H68C66.9391 28 65.9217 28.4214 65.1716 29.1716C64.4214 29.9217 64 30.9391 64 32C64 33.0609 64.4214 34.0783 65.1716 34.8284C65.9217 35.5786 66.9391 36 68 36Z" fill="#2B75FF"/>
<path d="M52 84H60C61.0609 84 62.0783 83.5786 62.8284 82.8284C63.5786 82.0783 64 81.0609 64 80C64 78.9391 63.5786 77.9217 62.8284 77.1716C62.0783 76.4214 61.0609 76 60 76H52C50.9391 76 49.9217 76.4214 49.1716 77.1716C48.4214 77.9217 48 78.9391 48 80C48 81.0609 48.4214 82.0783 49.1716 82.8284C49.9217 83.5786 50.9391 84 52 84Z" fill="#2B75FF"/>
<path d="M64 100C64 98.9391 63.5786 97.9217 62.8284 97.1716C62.0783 96.4214 61.0609 96 60 96H52C50.9391 96 49.9217 96.4214 49.1716 97.1716C48.4214 97.9217 48 98.9391 48 100C48 101.061 48.4214 102.078 49.1716 102.828C49.9217 103.579 50.9391 104 52 104H60C61.0609 104 62.0783 103.579 62.8284 102.828C63.5786 102.078 64 101.061 64 100Z" fill="#2B75FF"/>
<path d="M76 84H84C85.0609 84 86.0783 83.5786 86.8284 82.8284C87.5786 82.0783 88 81.0609 88 80C88 78.9391 87.5786 77.9217 86.8284 77.1716C86.0783 76.4214 85.0609 76 84 76H76C74.9391 76 73.9217 76.4214 73.1716 77.1716C72.4214 77.9217 72 78.9391 72 80C72 81.0609 72.4214 82.0783 73.1716 82.8284C73.9217 83.5786 74.9391 84 76 84Z" fill="#2B75FF"/>
<path d="M76 104H84C85.0609 104 86.0783 103.579 86.8284 102.828C87.5786 102.078 88 101.061 88 100C88 98.9391 87.5786 97.9217 86.8284 97.1716C86.0783 96.4214 85.0609 96 84 96H76C74.9391 96 73.9217 96.4214 73.1716 97.1716C72.4214 97.9217 72 98.9391 72 100C72 101.061 72.4214 102.078 73.1716 102.828C73.9217 103.579 74.9391 104 76 104Z" fill="#2B75FF"/>
<path d="M100 84H108C109.061 84 110.078 83.5786 110.828 82.8284C111.579 82.0783 112 81.0609 112 80C112 78.9391 111.579 77.9217 110.828 77.1716C110.078 76.4214 109.061 76 108 76H100C98.9391 76 97.9217 76.4214 97.1716 77.1716C96.4214 77.9217 96 78.9391 96 80C96 81.0609 96.4214 82.0783 97.1716 82.8284C97.9217 83.5786 98.9391 84 100 84Z" fill="#2B75FF"/>
<path d="M100 104H108C109.061 104 110.078 103.579 110.828 102.828C111.579 102.078 112 101.061 112 100C112 98.9391 111.579 97.9217 110.828 97.1716C110.078 96.4214 109.061 96 108 96H100C98.9391 96 97.9217 96.4214 97.1716 97.1716C96.4214 97.9217 96 98.9391 96 100C96 101.061 96.4214 102.078 97.1716 102.828C97.9217 103.579 98.9391 104 100 104Z" fill="#2B75FF"/>
</svg>
