<svg width="126" height="166" viewBox="0 0 126 166" fill="none" xmlns="http://www.w3.org/2000/svg">
<path fill-rule="evenodd" clip-rule="evenodd" d="M88.5785 16.8148H117.496C118.878 16.8148 119.997 17.9749 119.997 19.4043V157.232C119.997 158.661 118.878 159.821 117.496 159.821H8.50444C7.12195 159.821 6.00296 158.661 6.00296 157.232V19.4043C6.00296 17.9749 7.12195 16.8148 8.50444 16.8148H31.5848C32.9639 16.8148 34.0862 15.6547 34.0862 14.2253C34.0862 12.7976 32.9639 11.6358 31.5848 11.6358H8.50444C4.35865 11.6358 1 15.1144 1 19.4043V157.232C1 161.521 4.35865 165 8.50444 165H117.496C121.641 165 125 161.521 125 157.232V19.4043C125 15.1144 121.641 11.6358 117.496 11.6358H88.3967C87.7696 9.1672 85.5984 7.34421 83.0152 7.34421C82.7066 7.34421 82.4498 7.08526 82.4498 6.76417C82.4498 3.58429 79.96 1 76.8865 1H49.1135C46.04 1 43.5502 3.57912 43.5502 6.75899C43.5502 7.08008 43.2983 7.34421 42.9898 7.34421C39.9163 7.34421 37.4215 9.92333 37.4215 13.1032V21.4102C37.4215 24.7472 40.0347 27.4523 43.2583 27.4523H82.7417C85.9652 27.4523 88.5785 24.7472 88.5785 21.4102V16.8148ZM90.5163 126.876H84.6761C83.1286 126.876 81.6427 127.513 80.5487 128.647C79.4547 129.78 78.8394 131.316 78.8394 132.918V146.073C78.8394 147.675 79.4547 149.211 80.5487 150.345C81.6427 151.478 83.1286 152.115 84.6761 152.115H97.3837C98.9312 152.115 100.415 151.478 101.509 150.345C102.605 149.213 103.22 147.675 103.22 146.073V140.029C103.22 138.599 102.098 137.439 100.719 137.439C99.3382 137.439 98.2175 138.599 98.2175 140.029V146.073C98.2175 146.302 98.1291 146.522 97.9723 146.684C97.8156 146.844 97.6038 146.936 97.3837 146.936H84.6761C84.4544 146.936 84.2426 146.844 84.0858 146.684C83.9307 146.522 83.8423 146.302 83.8423 146.073V132.918C83.8423 132.69 83.9307 132.471 84.0858 132.309C84.2426 132.146 84.4544 132.055 84.6761 132.055H90.5163C91.8971 132.055 93.0177 130.895 93.0177 129.466C93.0177 128.036 91.8971 126.876 90.5163 126.876ZM21.0235 145.296H46.1033C47.4842 145.296 48.6048 144.136 48.6048 142.706C48.6048 141.277 47.4842 140.117 46.1033 140.117H21.0235C19.6427 140.117 18.522 141.277 18.522 142.706C18.522 144.136 19.6427 145.296 21.0235 145.296ZM92.7976 141.327L107.625 125.978C108.602 124.967 108.602 123.327 107.625 122.317C106.649 121.305 105.065 121.305 104.088 122.317L89.2605 137.666C88.285 138.675 88.285 140.315 89.2605 141.327C90.2378 142.337 91.822 142.337 92.7976 141.327ZM21.0235 132.055H65.4181C66.7972 132.055 67.9196 130.895 67.9196 129.466C67.9196 128.036 66.7972 126.876 65.4181 126.876H21.0235C19.6427 126.876 18.522 128.036 18.522 129.466C18.522 130.895 19.6427 132.055 21.0235 132.055ZM90.5163 84.8403H84.6761C83.1286 84.8403 81.6427 85.4773 80.5487 86.6115C79.4547 87.7439 78.8394 89.2803 78.8394 90.8824V104.037C78.8394 105.639 79.4547 107.177 80.5487 108.31C81.6427 109.442 83.1286 110.079 84.6761 110.079H97.3837C98.9312 110.079 100.415 109.442 101.509 108.31C102.605 107.177 103.22 105.639 103.22 104.037V97.993C103.22 96.5637 102.098 95.4036 100.719 95.4036C99.3382 95.4036 98.2175 96.5637 98.2175 97.993V104.037C98.2175 104.266 98.1291 104.486 97.9723 104.648C97.8156 104.809 97.6038 104.9 97.3837 104.9H84.6761C84.4544 104.9 84.2426 104.809 84.0858 104.648C83.9307 104.486 83.8423 104.266 83.8423 104.037V90.8824C83.8423 90.6545 83.9307 90.4352 84.0858 90.273C84.2426 90.1107 84.4544 90.0192 84.6761 90.0192H90.5163C91.8971 90.0192 93.0177 88.8591 93.0177 87.4297C93.0177 86.0021 91.8971 84.8403 90.5163 84.8403ZM21.0235 103.26H46.1033C47.4842 103.26 48.6048 102.1 48.6048 100.671C48.6048 99.2429 47.4842 98.0811 46.1033 98.0811H21.0235C19.6427 98.0811 18.522 99.2429 18.522 100.671C18.522 102.1 19.6427 103.26 21.0235 103.26ZM92.7976 99.2912L107.625 83.9426C108.602 82.9327 108.602 81.2909 107.625 80.2811C106.649 79.2694 105.065 79.2694 104.088 80.2811L89.2605 95.6297C88.285 96.6396 88.285 98.2813 89.2605 99.2912C90.2378 100.301 91.822 100.301 92.7976 99.2912ZM21.0235 90.0192H65.4181C66.7972 90.0192 67.9196 88.8591 67.9196 87.4297C67.9196 86.0021 66.7972 84.8403 65.4181 84.8403H21.0235C19.6427 84.8403 18.522 86.0021 18.522 87.4297C18.522 88.8591 19.6427 90.0192 21.0235 90.0192ZM90.5163 42.8045H84.6761C83.1286 42.8062 81.6427 43.4415 80.5487 44.5757C79.4547 45.7081 78.8394 47.2445 78.8394 48.8483V62.0011C78.8394 63.6031 79.4547 65.1413 80.5487 66.2737C81.6427 67.4062 83.1286 68.0432 84.6761 68.0432H97.3837C98.9312 68.0432 100.415 67.4062 101.509 66.2737C102.605 65.1413 103.22 63.6031 103.22 62.0011V55.9573C103.22 54.5279 102.098 53.3678 100.719 53.3678C99.3382 53.3678 98.2175 54.5279 98.2175 55.9573V62.0011C98.2175 62.2307 98.1291 62.4499 97.9723 62.6122C97.8156 62.7728 97.6038 62.8643 97.3837 62.8643H84.6761C84.4544 62.8643 84.2426 62.7728 84.0858 62.6122C83.9307 62.4499 83.8423 62.2307 83.8423 62.0011V48.8483C83.8423 48.6187 83.9307 48.3995 84.0858 48.2372C84.2426 48.0749 84.4544 47.9851 84.6761 47.9834H90.5163C91.8971 47.9834 93.0177 46.8233 93.0177 45.3939C93.0177 43.9663 91.8971 42.8045 90.5163 42.8045ZM21.0235 61.2243H46.1033C47.4842 61.2243 48.6048 60.0642 48.6048 58.6348C48.6048 57.2071 47.4842 56.0453 46.1033 56.0453H21.0235C19.6427 56.0453 18.522 57.2071 18.522 58.6348C18.522 60.0642 19.6427 61.2243 21.0235 61.2243ZM92.7976 57.2555L107.625 41.9068C108.602 40.8969 108.602 39.2552 107.625 38.2453C106.649 37.2336 105.065 37.2336 104.088 38.2453L89.2605 53.5939C88.285 54.6038 88.285 56.2456 89.2605 57.2555C90.2378 58.2654 91.822 58.2654 92.7976 57.2555ZM21.0235 47.9834H65.4181C66.7972 47.9834 67.9196 46.8233 67.9196 45.3939C67.9196 43.9663 66.7972 42.8045 65.4181 42.8045H21.0235C19.6427 42.8045 18.522 43.9663 18.522 45.3939C18.522 46.8233 19.6427 47.9834 21.0235 47.9834ZM83.0102 12.5232C83.3203 12.5232 83.5755 12.7838 83.5755 13.1032V21.4102C83.5755 21.8867 83.2036 22.2734 82.7417 22.2734H43.2583C42.7964 22.2734 42.4245 21.8867 42.4245 21.4102V13.1032C42.4245 12.7838 42.6746 12.5232 42.9848 12.5232C46.0566 12.5232 48.5531 9.94577 48.5531 6.76417C48.5531 6.44307 48.8033 6.17895 49.1135 6.17895H76.8865C77.1967 6.17895 77.4469 6.43789 77.4469 6.75899C77.4469 9.94059 79.9383 12.5232 83.0102 12.5232Z" fill="#2B75FF" stroke="#2B75FF" stroke-width="0.5"/>
</svg>
