<svg width="372" height="411" viewBox="0 0 372 411" fill="none" xmlns="http://www.w3.org/2000/svg">
<path d="M259.403 385.929H33.547C32.1657 385.929 30.8411 385.323 29.8644 384.244C28.8877 383.165 28.339 381.701 28.339 380.175V30.8249C28.339 29.2989 28.8877 27.8353 29.8644 26.7562C30.8411 25.6772 32.1657 25.0709 33.547 25.0709H214.231C214.994 25.0688 215.748 25.2517 216.439 25.6068C217.131 25.9619 217.744 26.4805 218.234 27.1259L263.406 87.0292C264.188 88.0676 264.615 89.3771 264.611 90.7282V205.5C264.611 207.026 264.062 208.49 263.086 209.569C262.109 210.648 260.784 211.254 259.403 211.254C258.022 211.254 256.697 210.648 255.72 209.569C254.744 208.49 254.195 207.026 254.195 205.5V92.7955L211.795 36.5789H38.755V374.421H259.403C260.784 374.421 262.109 375.027 263.086 376.106C264.062 377.185 264.611 378.649 264.611 380.175C264.611 381.701 264.062 383.165 263.086 384.244C262.109 385.323 260.784 385.929 259.403 385.929Z" fill="#2B75FF"/>
<path d="M259.403 96.4659H214.231C212.85 96.4659 211.525 95.8596 210.548 94.7806C209.572 93.7015 209.023 92.2379 209.023 90.7119V30.8251C209.02 29.6408 209.347 28.4842 209.961 27.5132C210.574 26.5421 211.444 25.804 212.452 25.3994C213.459 24.9948 214.555 24.9435 215.59 25.2526C216.625 25.5616 217.548 26.2158 218.234 27.1261L263.406 87.0293C264.044 87.8693 264.451 88.8932 264.58 89.9806C264.709 91.0679 264.554 92.1733 264.134 93.1666C263.713 94.1599 263.044 94.9997 262.206 95.5871C261.368 96.1746 260.395 96.4851 259.403 96.4823V96.4659ZM219.439 84.9579H248.284L219.439 46.7349V84.9579Z" fill="#2B75FF"/>
<path d="M174.706 113.933H73.072C71.6908 113.933 70.3661 113.327 69.3894 112.248C68.4127 111.169 67.864 109.705 67.864 108.179V70.7495C67.864 69.2234 68.4127 67.7599 69.3894 66.6808C70.3661 65.6017 71.6908 64.9955 73.072 64.9955H174.706C176.087 64.9955 177.412 65.6017 178.389 66.6808C179.365 67.7599 179.914 69.2234 179.914 70.7495V108.179C179.914 109.705 179.365 111.169 178.389 112.248C177.412 113.327 176.087 113.933 174.706 113.933ZM78.28 102.425H169.498V76.5035H78.28V102.425Z" fill="#2B75FF"/>
<path d="M225.525 168.333H67.425C66.0438 168.333 64.7191 167.727 63.7424 166.648C62.7657 165.569 62.217 164.105 62.217 162.579C62.217 161.053 62.7657 159.59 63.7424 158.511C64.7191 157.431 66.0438 156.825 67.425 156.825H225.525C226.906 156.825 228.231 157.431 229.208 158.511C230.184 159.59 230.733 161.053 230.733 162.579C230.733 164.105 230.184 165.569 229.208 166.648C228.231 167.727 226.906 168.333 225.525 168.333Z" fill="#2B75FF"/>
<path d="M180.353 222.733H67.425C66.0438 222.733 64.7191 222.127 63.7424 221.048C62.7657 219.969 62.217 218.505 62.217 216.979C62.217 215.453 62.7657 213.99 63.7424 212.911C64.7191 211.831 66.0438 211.225 67.425 211.225H180.353C181.734 211.225 183.059 211.831 184.036 212.911C185.012 213.99 185.561 215.453 185.561 216.979C185.561 218.505 185.012 219.969 184.036 221.048C183.059 222.127 181.734 222.733 180.353 222.733Z" fill="#2B75FF"/>
<path d="M182.76 277.133H67.4399C66.0587 277.133 64.734 276.527 63.7573 275.448C62.7806 274.369 62.2319 272.905 62.2319 271.379C62.2319 269.853 62.7806 268.39 63.7573 267.31C64.734 266.231 66.0587 265.625 67.4399 265.625H182.76C184.141 265.625 185.466 266.231 186.443 267.31C187.419 268.39 187.968 269.853 187.968 271.379C187.968 272.905 187.419 274.369 186.443 275.448C185.466 276.527 184.141 277.133 182.76 277.133Z" fill="#2B75FF"/>
<path d="M186.171 331.529H67.425C66.0438 331.529 64.7191 330.923 63.7424 329.844C62.7657 328.765 62.217 327.301 62.217 325.775C62.217 324.249 62.7657 322.785 63.7424 321.706C64.7191 320.627 66.0438 320.021 67.425 320.021H186.171C187.552 320.021 188.877 320.627 189.854 321.706C190.83 322.785 191.379 324.249 191.379 325.775C191.379 327.301 190.83 328.765 189.854 329.844C188.877 330.923 187.552 331.529 186.171 331.529Z" fill="#2B75FF"/>
<path d="M259.403 385.929C239.909 385.929 221.019 378.461 205.95 364.798C190.882 351.135 180.567 332.122 176.764 310.999C172.961 289.875 175.905 267.948 185.094 248.954C194.284 229.96 209.149 215.074 227.159 206.832C245.169 198.59 265.208 197.503 283.862 203.755C302.516 210.007 318.631 223.211 329.461 241.119C340.291 259.026 345.166 280.529 343.255 301.962C341.345 323.396 332.766 343.434 318.982 358.663C311.177 367.335 301.892 374.21 291.665 378.89C281.438 383.57 270.472 385.963 259.403 385.929ZM259.403 211.254C218.688 211.254 185.561 247.833 185.561 292.837C185.561 337.842 218.688 374.421 259.403 374.421C300.118 374.421 333.245 337.842 333.245 292.837C333.245 247.833 300.118 211.254 259.403 211.254Z" fill="#2B75FF"/>
<path d="M242.987 339.946C240.979 339.954 238.99 339.523 237.135 338.676C235.279 337.829 233.594 336.585 232.176 335.014L202.874 302.64C200.063 299.459 198.501 295.183 198.525 290.738C198.549 286.293 200.158 282.038 203.003 278.895C205.848 275.752 209.699 273.974 213.722 273.948C217.745 273.921 221.616 275.647 224.495 278.753L242.987 299.183L286.883 250.685C289.783 247.72 293.61 246.11 297.561 246.193C301.512 246.277 305.28 248.048 308.075 251.134C310.871 254.22 312.476 258.382 312.554 262.747C312.633 267.113 311.178 271.342 308.496 274.548L253.812 334.965C252.396 336.546 250.71 337.801 248.852 338.656C246.994 339.512 245 339.95 242.987 339.946ZM213.684 285.283C212.721 285.284 211.779 285.6 210.978 286.192C210.177 286.783 209.553 287.624 209.184 288.607C208.815 289.591 208.719 290.673 208.907 291.717C209.095 292.761 209.558 293.72 210.24 294.473L239.542 326.848C239.994 327.348 240.531 327.745 241.122 328.015C241.713 328.286 242.347 328.425 242.987 328.425C243.626 328.425 244.26 328.286 244.851 328.015C245.442 327.745 245.979 327.348 246.431 326.848L301.115 266.431C301.938 265.406 302.375 264.073 302.339 262.703C302.303 261.334 301.796 260.032 300.921 259.061C300.047 258.091 298.87 257.525 297.631 257.479C296.392 257.433 295.183 257.911 294.252 258.815L246.669 311.374C246.186 311.908 245.612 312.332 244.98 312.621C244.348 312.91 243.671 313.059 242.987 313.059C242.303 313.059 241.625 312.91 240.994 312.621C240.362 312.332 239.787 311.908 239.304 311.374L217.129 286.878C216.678 286.375 216.142 285.977 215.55 285.705C214.959 285.433 214.325 285.294 213.684 285.296V285.283Z" fill="#2B75FF"/>
</svg>
