<svg width="165" height="178" viewBox="0 0 165 178" fill="none" xmlns="http://www.w3.org/2000/svg">
<path d="M159.216 152.882L122.652 122.27C128.648 113.612 131.896 103.369 131.896 92.6162C131.896 78.6462 126.459 65.5178 116.581 55.6425C106.704 45.7673 93.5666 40.325 79.5935 40.325C73.2863 40.325 67.1772 41.491 61.4339 43.6112V21.119H63.8682C65.3452 21.119 66.539 19.9255 66.539 18.4543V3.67025C66.5363 2.1935 65.3452 1 63.8682 1H3.66535C2.19377 1 1 2.1935 1 3.67025V18.457C1 19.9282 2.19377 21.1217 3.66535 21.1217H6.10515V149.352C6.10515 156.757 8.98505 163.698 14.2057 168.887C19.4071 174.118 26.347 176.997 33.7544 176.997C49.0176 176.997 61.4339 164.595 61.4339 149.352V141.621C67.1772 143.742 73.2863 144.908 79.5935 144.908C90.3539 144.908 100.594 141.652 109.253 135.659L139.904 172.248C142.374 175.122 145.974 176.852 149.773 176.992C149.943 177 150.114 177 150.282 177C153.912 177 157.422 175.556 159.989 172.993C162.676 170.301 164.131 166.58 163.991 162.771C163.845 158.974 162.115 155.377 159.216 152.882ZM6.3362 6.33225H61.2028V15.7867H58.8235C58.8015 15.7867 58.785 15.7758 58.7658 15.7758C58.7465 15.7758 58.7273 15.7867 58.7107 15.7867H8.82826C8.81176 15.7867 8.79526 15.7758 8.77325 15.7758C8.75125 15.7758 8.73749 15.7867 8.71549 15.7867H6.3362V6.33225ZM56.0977 149.349C56.0977 161.65 46.0717 171.66 33.7544 171.66C27.78 171.66 22.177 169.339 17.9768 165.112C13.7601 160.923 11.4386 155.324 11.4386 149.349V21.119H56.0977V45.9185C51.1768 48.399 46.6163 51.633 42.6086 55.6397C32.7284 65.5177 27.2932 78.6435 27.2932 92.6135C27.2932 106.578 32.7311 119.712 42.6086 129.587C46.6163 133.594 51.1768 136.828 56.0977 139.309V149.349ZM46.3797 125.82C37.509 116.951 32.6266 105.156 32.6266 92.6162C32.6266 80.0762 37.509 68.2787 46.3797 59.4127C55.256 50.5385 67.0479 45.6572 79.5907 45.6572C92.1418 45.6572 103.934 50.5385 112.802 59.4127C121.678 68.2815 126.56 80.0762 126.56 92.6162C126.56 105.156 121.678 116.954 112.802 125.82C103.931 134.689 92.139 139.575 79.5907 139.575C67.0479 139.575 55.256 134.686 46.3797 125.82ZM156.212 169.217C154.551 170.881 152.35 171.764 149.974 171.662C147.616 171.577 145.471 170.546 143.966 168.794L113.481 132.398C114.535 131.496 115.588 130.583 116.581 129.59C117.569 128.597 118.487 127.549 119.389 126.491L155.761 156.95C157.538 158.482 158.569 160.618 158.657 162.975C158.748 165.335 157.876 167.551 156.212 169.217Z" fill="#2B75FF" stroke="#2B75FF" stroke-width="0.5"/>
</svg>
