<svg width="291" height="264" viewBox="0 0 291 264" fill="none" xmlns="http://www.w3.org/2000/svg">
<g clip-path="url(#clip0_500_1237)">
<path d="M88.3147 81.0821H75.7223C73.9698 81.0771 72.2336 81.3871 70.614 81.9943C68.9944 82.6016 67.5234 83.494 66.2862 84.62C65.049 85.7459 64.0699 87.0832 63.4057 88.5544C62.7415 90.0257 62.4052 91.6018 62.4163 93.1916V104.616C62.4191 107.825 63.8248 110.902 66.3252 113.172C68.8255 115.442 72.2163 116.72 75.7537 116.725H88.3461C91.8864 116.723 95.2809 115.446 97.7852 113.176C100.29 110.906 101.699 107.827 101.705 104.616V93.1916C101.714 91.5957 101.374 90.0139 100.704 88.5382C100.035 87.0625 99.0479 85.7223 97.802 84.5956C96.5562 83.4688 95.0758 82.578 93.4471 81.9748C91.8184 81.3717 90.0738 81.0682 88.3147 81.0821ZM92.764 104.578C92.7424 105.642 92.2668 106.657 91.437 107.41C90.6072 108.163 89.488 108.595 88.3147 108.614H75.7223C74.5566 108.589 73.4472 108.154 72.6286 107.401C71.8101 106.648 71.3465 105.635 71.3359 104.578V93.1535C71.3303 92.622 71.4416 92.0949 71.6632 91.6028C71.8848 91.1108 72.2123 90.6638 72.6266 90.288C73.0409 89.9121 73.5336 89.615 74.0759 89.4139C74.6183 89.2129 75.1994 89.1119 75.7852 89.117H88.3776C89.5577 89.117 90.6894 89.5423 91.5238 90.2993C92.3582 91.0563 92.8269 92.083 92.8269 93.1535L92.764 104.578Z" fill="#2B75FF"/>
<path d="M88.3147 136.136H75.7223C73.9685 136.133 72.2312 136.444 70.6108 137.053C68.9904 137.662 67.5191 138.556 66.2819 139.684C65.0447 140.812 64.066 142.151 63.4025 143.623C62.7391 145.096 62.4039 146.674 62.4164 148.265V159.689C62.4164 162.899 63.8212 165.978 66.3222 168.248C68.8231 170.519 72.2155 171.796 75.7538 171.798H88.3462C91.8882 171.788 95.2811 170.503 97.7798 168.226C100.278 165.948 101.679 162.864 101.673 159.651V148.227C101.679 146.635 101.337 145.058 100.667 143.587C99.9973 142.116 99.013 140.78 97.7711 139.656C96.5291 138.532 95.054 137.642 93.431 137.038C91.8079 136.434 90.0691 136.128 88.3147 136.136ZM92.764 159.632C92.764 160.162 92.649 160.687 92.4254 161.177C92.2018 161.666 91.874 162.111 91.4609 162.486C91.0477 162.861 90.5572 163.158 90.0174 163.361C89.4776 163.564 88.899 163.668 88.3147 163.668H75.7223C75.1435 163.666 74.571 163.56 74.0373 163.357C73.5036 163.153 73.0193 162.857 72.612 162.484C72.2047 162.111 71.8824 161.669 71.6634 161.182C71.4445 160.696 71.3332 160.176 71.336 159.651V148.227C71.3304 147.695 71.4416 147.168 71.6632 146.676C71.8848 146.184 72.2124 145.737 72.6267 145.361C73.0409 144.985 73.5337 144.688 74.076 144.487C74.6183 144.286 75.1994 144.185 75.7853 144.19H88.3777C89.5577 144.19 90.6894 144.616 91.5238 145.373C92.3583 146.13 92.827 147.156 92.827 148.227L92.764 159.632Z" fill="#2B75FF"/>
<path d="M88.3147 191.238H75.7223C72.1895 191.248 68.8052 192.529 66.311 194.799C63.8169 197.069 62.4163 200.143 62.4163 203.348V214.772C62.4066 216.364 62.7449 217.942 63.4116 219.414C64.0783 220.887 65.0602 222.225 66.3005 223.351C67.5408 224.477 69.0149 225.369 70.6375 225.975C72.2601 226.581 73.9991 226.889 75.7538 226.881H88.3462C90.1019 226.889 91.8419 226.581 93.4657 225.975C95.0895 225.369 96.5649 224.478 97.8069 223.352C99.0489 222.226 100.033 220.888 100.702 219.416C101.371 217.943 101.712 216.365 101.705 214.772V203.348C101.702 201.755 101.353 200.179 100.679 198.708C100.005 197.237 99.0175 195.902 97.7741 194.777C96.5308 193.653 95.0554 192.762 93.4324 192.154C91.8093 191.547 90.0704 191.236 88.3147 191.238ZM92.764 214.743C92.7613 215.813 92.2916 216.838 91.4578 217.595C90.624 218.351 89.4939 218.777 88.3147 218.78H75.7223C75.1422 218.776 74.5685 218.669 74.0341 218.464C73.4996 218.259 73.0149 217.961 72.6076 217.586C72.2003 217.211 71.8784 216.767 71.6602 216.279C71.442 215.792 71.3318 215.27 71.336 214.743V203.319C71.3304 202.788 71.4416 202.261 71.6632 201.769C71.8848 201.277 72.2124 200.83 72.6266 200.454C73.0409 200.078 73.5336 199.781 74.076 199.58C74.6183 199.379 75.1994 199.278 75.7853 199.283H88.3777C89.5577 199.283 90.6894 199.708 91.5238 200.465C92.3582 201.222 92.827 202.249 92.827 203.319L92.764 214.743Z" fill="#2B75FF"/>
<path d="M120.247 89.1551H209.999C211.175 89.1427 212.299 88.7135 213.13 87.9591C213.962 87.2048 214.435 86.1853 214.449 85.1186C214.456 84.5867 214.345 84.059 214.124 83.5663C213.903 83.0737 213.576 82.6262 213.161 82.2501C212.747 81.874 212.253 81.5769 211.71 81.3763C211.167 81.1757 210.585 81.0757 209.999 81.0821H120.247C119.661 81.077 119.08 81.1779 118.538 81.379C117.995 81.58 117.503 81.8772 117.088 82.253C116.674 82.6288 116.346 83.0758 116.125 83.5679C115.903 84.0599 115.792 84.5871 115.798 85.1186C115.811 86.1853 116.284 87.2048 117.116 87.9591C117.947 88.7135 119.071 89.1427 120.247 89.1551Z" fill="#2B75FF"/>
<path d="M120.247 144.229H209.999C210.584 144.229 211.162 144.124 211.702 143.921C212.242 143.718 212.732 143.421 213.145 143.046C213.559 142.671 213.886 142.226 214.11 141.737C214.334 141.247 214.449 140.722 214.449 140.192C214.449 139.662 214.334 139.137 214.11 138.647C213.886 138.158 213.559 137.713 213.145 137.338C212.732 136.963 212.242 136.666 211.702 136.463C211.162 136.26 210.584 136.156 209.999 136.156H120.247C119.067 136.156 117.935 136.581 117.101 137.338C116.266 138.095 115.798 139.121 115.798 140.192C115.798 141.263 116.266 142.289 117.101 143.046C117.935 143.803 119.067 144.229 120.247 144.229Z" fill="#2B75FF"/>
<path d="M120.247 171.76H179.127C179.711 171.76 180.29 171.656 180.83 171.453C181.369 171.25 181.86 170.953 182.273 170.578C182.686 170.203 183.014 169.758 183.238 169.269C183.461 168.779 183.576 168.254 183.576 167.724C183.576 167.194 183.461 166.669 183.238 166.179C183.014 165.69 182.686 165.245 182.273 164.87C181.86 164.495 181.369 164.198 180.83 163.995C180.29 163.792 179.711 163.687 179.127 163.688H120.247C119.067 163.688 117.935 164.113 117.101 164.87C116.266 165.627 115.798 166.653 115.798 167.724C115.798 168.795 116.266 169.821 117.101 170.578C117.935 171.335 119.067 171.76 120.247 171.76Z" fill="#2B75FF"/>
<path d="M120.247 116.687H189.988C191.168 116.687 192.3 116.262 193.134 115.505C193.968 114.748 194.437 113.721 194.437 112.651C194.437 111.58 193.968 110.553 193.134 109.796C192.3 109.039 191.168 108.614 189.988 108.614H120.247C119.067 108.614 117.935 109.039 117.101 109.796C116.266 110.553 115.798 111.58 115.798 112.651C115.798 113.721 116.266 114.748 117.101 115.505C117.935 116.262 119.067 116.687 120.247 116.687Z" fill="#2B75FF"/>
<path d="M120.247 199.311H179.127C180.307 199.311 181.439 198.886 182.273 198.129C183.107 197.372 183.576 196.345 183.576 195.275C183.576 194.204 183.107 193.178 182.273 192.421C181.439 191.664 180.307 191.238 179.127 191.238H120.247C119.067 191.238 117.935 191.664 117.101 192.421C116.266 193.178 115.798 194.204 115.798 195.275C115.798 196.345 116.266 197.372 117.101 198.129C117.935 198.886 119.067 199.311 120.247 199.311Z" fill="#2B75FF"/>
<path d="M189.988 218.78H120.247C119.067 218.78 117.935 219.205 117.101 219.962C116.266 220.719 115.798 221.746 115.798 222.816C115.798 223.887 116.266 224.914 117.101 225.671C117.935 226.428 119.067 226.853 120.247 226.853H189.988C191.168 226.853 192.3 226.428 193.134 225.671C193.968 224.914 194.437 223.887 194.437 222.816C194.437 221.746 193.968 220.719 193.134 219.962C192.3 219.205 191.168 218.78 189.988 218.78Z" fill="#2B75FF"/>
<path d="M282.626 186.488C282.606 176.48 278.505 166.833 271.114 159.404C263.723 151.974 253.564 147.288 242.593 146.247V29.5121C242.568 21.6821 239.124 14.1801 233.015 8.64878C226.906 3.11745 218.63 0.0075513 209.999 2.85673e-05H40.9043C32.6512 -0.010383 24.7023 2.82547 18.6677 7.93313C12.6331 13.0408 8.96404 20.0384 8.40372 27.5085C7.8434 34.9785 10.4337 42.3625 15.65 48.1648C20.8662 53.967 28.3184 57.7537 36.4969 58.7577V259.964C36.4996 261.027 36.9635 262.046 37.7883 262.802C38.613 263.557 39.7324 263.988 40.9043 264H238.185C239.362 263.99 240.487 263.562 241.319 262.807C242.151 262.052 242.624 261.031 242.635 259.964V226.729C253.599 225.681 263.75 220.992 271.132 213.563C278.515 206.134 282.609 196.49 282.626 186.488ZM17.2725 29.5121C17.3029 23.8346 19.8024 18.3975 24.2276 14.3828C28.6529 10.3681 34.6461 8.10055 40.9043 8.07301H187.69C184.45 10.8271 181.867 14.155 180.102 17.8508C178.336 21.5466 177.425 25.5318 177.425 29.5597C177.425 33.5877 178.336 37.5728 180.102 41.2686C181.867 44.9644 184.45 48.2923 187.69 51.0464H40.9043C37.7936 51.0414 34.7146 50.4803 31.8431 49.3952C28.9716 48.3101 26.364 46.7222 24.1693 44.7223C21.9746 42.7224 20.2359 40.3497 19.0525 37.7398C17.8691 35.13 17.2643 32.3342 17.2725 29.5121ZM45.3956 255.889V59.1099H209.999C210.601 59.1364 211.203 59.0518 211.767 58.8612C212.332 58.6706 212.848 58.3779 213.284 58.0009C213.72 57.6239 214.068 57.1704 214.305 56.668C214.542 56.1656 214.665 55.6248 214.665 55.0782C214.665 54.5316 214.542 53.9907 214.305 53.4883C214.068 52.9859 213.72 52.5325 213.284 52.1555C212.848 51.7785 212.332 51.4858 211.767 51.2952C211.203 51.1045 210.601 51.0199 209.999 51.0464C205.318 51.0445 200.742 49.784 196.849 47.4239C192.957 45.0639 189.923 41.7103 188.13 37.7867C186.338 33.8631 185.867 29.5456 186.778 25.3795C187.689 21.2134 189.94 17.3857 193.248 14.3798C196.555 11.3739 200.77 9.32466 205.361 8.491C209.952 7.65733 214.711 8.07661 219.039 9.69587C223.368 11.3151 227.069 14.0617 229.678 17.5887C232.286 21.1157 233.684 25.2649 233.694 29.5121V146.247C222.71 147.265 212.534 151.944 205.134 159.377C197.734 166.811 193.638 176.472 193.638 186.488C193.638 196.504 197.734 206.165 205.134 213.598C212.534 221.032 222.71 225.711 233.694 226.729V255.927L45.3956 255.889ZM238.143 218.761C231.103 218.763 224.22 216.87 218.365 213.323C212.51 209.776 207.946 204.734 205.251 198.833C202.555 192.933 201.849 186.44 203.221 180.175C204.593 173.91 207.982 168.155 212.96 163.638C217.938 159.121 224.28 156.045 231.185 154.798C238.09 153.551 245.247 154.19 251.752 156.634C258.257 159.078 263.816 163.217 267.728 168.527C271.64 173.838 273.727 180.082 273.727 186.469C273.711 195.022 269.963 203.222 263.303 209.276C256.644 215.33 247.613 218.747 238.185 218.78L238.143 218.761Z" fill="#2B75FF"/>
<path d="M255.941 182.451H242.593V170.342C242.593 169.271 242.124 168.245 241.29 167.488C240.455 166.731 239.323 166.305 238.143 166.305C236.963 166.305 235.832 166.731 234.997 167.488C234.163 168.245 233.694 169.271 233.694 170.342V182.451H220.346C219.744 182.425 219.143 182.509 218.578 182.7C218.014 182.891 217.498 183.183 217.061 183.56C216.625 183.937 216.278 184.391 216.04 184.893C215.803 185.396 215.681 185.937 215.681 186.483C215.681 187.03 215.803 187.571 216.04 188.073C216.278 188.575 216.625 189.029 217.061 189.406C217.498 189.783 218.014 190.076 218.578 190.266C219.143 190.457 219.744 190.541 220.346 190.515H233.694V202.634C233.694 203.704 234.163 204.731 234.997 205.488C235.832 206.245 236.963 206.67 238.143 206.67C239.323 206.67 240.455 206.245 241.29 205.488C242.124 204.731 242.593 203.704 242.593 202.634V190.515H255.941C257.082 190.465 258.158 190.018 258.946 189.267C259.734 188.517 260.174 187.52 260.174 186.483C260.174 185.447 259.734 184.45 258.946 183.699C258.158 182.948 257.082 182.502 255.941 182.451Z" fill="#2B75FF"/>
</g>
<defs>
<clipPath id="clip0_500_1237">
<rect width="291" height="264" fill="white"/>
</clipPath>
</defs>
</svg>
