<svg width="236" height="239" viewBox="0 0 236 239" fill="none" xmlns="http://www.w3.org/2000/svg">
<g clip-path="url(#clip0_500_1276)">
<path d="M208.467 183.731H194.208C185.262 183.731 177.983 176.36 177.983 167.3V157.342C177.983 148.282 185.262 140.91 194.208 140.91C203.155 140.91 210.433 148.282 210.433 157.342V167.3C210.433 169.5 212.194 171.283 214.367 171.283C216.539 171.283 218.3 169.5 218.3 167.3V157.342C218.3 143.888 207.493 132.944 194.208 132.944C180.924 132.944 170.117 143.888 170.117 157.342C170.781 163.348 167.593 174.128 176.58 183.906C167.856 184.881 160.348 189.999 156.022 197.27C151.2 189.165 142.427 183.732 132.422 183.732H118C109.054 183.732 101.775 176.361 101.775 167.301V157.342C101.775 148.282 109.054 140.911 118 140.911C126.946 140.911 134.225 148.282 134.225 157.342V167.301C134.225 169.5 135.986 171.284 138.158 171.284C140.331 171.284 142.092 169.5 142.092 167.301V157.342C142.092 148.299 137.204 140.394 129.967 136.18C133.27 133.771 137.253 132.446 141.436 132.446H155.858C169.143 132.446 179.95 121.502 179.95 108.048V98.0901C179.95 85.9125 171.094 75.7909 159.562 73.981C157.538 61.7745 147.789 52.3898 135.612 50.9787C144.614 41.2026 141.434 30.3276 142.092 24.3979C142.092 10.9447 131.284 0 118 0C104.716 0 93.9083 10.9447 93.9083 24.3979C94.578 30.4386 91.3704 41.1857 100.387 50.9782C96.4129 51.4457 92.5823 52.7792 89.1633 54.9102C87.3131 56.0634 86.7364 58.5172 87.8751 60.3903C89.0133 62.264 91.4367 62.8485 93.2864 61.6949C96.3726 59.7709 99.9313 58.7542 103.577 58.7542H132.422C141.734 58.7542 149.53 65.2415 151.568 74.087C140.325 76.1434 131.767 86.1202 131.767 98.0896C132.436 104.132 129.23 114.875 138.242 124.666C131.82 125.416 125.91 128.419 121.45 133.198C106.885 131.072 93.9083 142.548 93.9083 157.342C94.578 163.381 91.3694 174.131 100.389 183.924C91.7278 184.941 84.279 190.039 79.9775 197.27C75.1557 189.165 66.3824 183.731 56.3775 183.731H41.7917C32.8453 183.731 25.5667 176.36 25.5667 167.3V157.342C25.5667 148.282 32.8453 140.91 41.7917 140.91C50.738 140.91 58.0167 148.282 58.0167 157.342V167.3C58.0167 169.5 59.7778 171.283 61.95 171.283C64.1222 171.283 65.8833 169.5 65.8833 167.3V157.342C65.8833 148.335 61.036 140.459 53.8483 136.232C57.1646 133.79 61.1732 132.446 65.3917 132.446H79.65C92.9343 132.446 103.742 121.501 103.742 108.048V98.0896C103.742 85.9718 94.9718 75.8935 83.5229 74.0113C81.5026 61.7407 71.6762 52.3136 59.4219 50.9603C68.4017 41.1877 65.2255 30.343 65.8833 24.3979C65.8833 10.9447 55.076 0 41.7917 0C28.5073 0 17.7 10.9447 17.7 24.3979C18.3706 30.4297 15.1556 41.2021 24.1988 50.9991C10.5846 52.6726 0 64.4394 0 78.6708V102.073C0 104.273 1.76115 106.056 3.93333 106.056C6.10552 106.056 7.86667 104.273 7.86667 102.073V78.6708C7.86667 67.6888 16.6891 58.7542 27.5333 58.7542H56.3779C65.6798 58.7542 73.4698 65.2276 75.5175 74.0581C64.1964 76.0498 55.5583 86.0639 55.5583 98.0896C56.2295 104.13 53.0154 114.89 62.0523 124.686C55.6734 125.464 49.8152 128.461 45.3872 133.217C30.7592 130.99 17.7 142.51 17.7 157.342C18.3706 163.373 15.1556 174.146 24.1988 183.943C10.5846 185.616 0 197.383 0 211.615V235.017C0 237.216 1.76115 239 3.93333 239C6.10552 239 7.86667 237.216 7.86667 235.017V211.615C7.86667 200.633 16.6891 191.698 27.5333 191.698H56.3779C67.2221 191.698 76.0446 200.633 76.0446 211.615V235.017C76.0446 237.216 77.8058 239 79.9779 239C82.1501 239 83.9113 237.216 83.9113 235.017V211.615C83.9113 200.633 92.7337 191.698 103.578 191.698H132.423C143.267 191.698 152.089 200.633 152.089 211.615V235.017C152.089 237.216 153.85 239 156.023 239C158.195 239 159.956 237.216 159.956 235.017V211.615C159.956 200.633 168.778 191.698 179.623 191.698H208.467C219.311 191.698 228.133 200.633 228.133 211.615V235.017C228.133 237.216 229.894 239 232.067 239C234.239 239 236 237.216 236 235.017V211.615C236 196.24 223.648 183.731 208.467 183.731ZM101.775 24.3979C101.775 15.3378 109.054 7.96667 118 7.96667C126.946 7.96667 134.225 15.3378 134.225 24.3979V34.3563C134.225 43.4163 126.946 50.7875 118 50.7875C109.054 50.7875 101.775 43.4163 101.775 34.3563V24.3979ZM139.633 98.0896C139.633 89.0295 146.912 81.6583 155.858 81.6583C164.805 81.6583 172.083 89.0295 172.083 98.0896V108.048C172.083 117.108 164.805 124.479 155.858 124.479C146.912 124.479 139.633 117.108 139.633 108.048V98.0896ZM25.5667 24.3979C25.5667 15.3378 32.8453 7.96667 41.7917 7.96667C50.738 7.96667 58.0167 15.3378 58.0167 24.3979V34.3563C58.0167 43.4163 50.738 50.7875 41.7917 50.7875C32.8453 50.7875 25.5667 43.4163 25.5667 34.3563V24.3979ZM63.425 98.0896C63.425 89.0295 70.7036 81.6583 79.65 81.6583C88.5964 81.6583 95.875 89.0295 95.875 98.0896V108.048C95.875 117.108 88.5964 124.479 79.65 124.479C70.7036 124.479 63.425 117.108 63.425 108.048V98.0896ZM211.801 50.9991C220.829 41.2185 217.642 30.3211 218.3 24.3979C218.3 10.9447 207.493 0 194.208 0C180.924 0 170.117 10.9447 170.117 24.3979C170.786 30.4521 167.584 41.1687 176.575 50.9568C173.441 51.3033 170.42 52.1866 167.561 53.5992C165.609 54.5642 164.798 56.9487 165.751 58.9259C166.704 60.9037 169.059 61.7247 171.011 60.7588C176.416 58.0875 177.638 58.7542 208.467 58.7542C219.311 58.7542 228.133 67.6888 228.133 78.6708V102.073C228.133 104.273 229.894 106.056 232.067 106.056C234.239 106.056 236 104.273 236 102.073V78.6708C236 64.4394 225.415 52.6726 211.801 50.9991ZM177.983 24.3979C177.983 15.3378 185.262 7.96667 194.208 7.96667C203.155 7.96667 210.433 15.3378 210.433 24.3979V34.3563C210.433 43.4163 203.155 50.7875 194.208 50.7875C185.262 50.7875 177.983 43.4163 177.983 34.3563V24.3979Z" fill="#2B75FF"/>
</g>
<defs>
<clipPath id="clip0_500_1276">
<rect width="236" height="239" fill="white"/>
</clipPath>
</defs>
</svg>
