<svg width="160" height="160" viewBox="0 0 160 160" fill="none" xmlns="http://www.w3.org/2000/svg">
<path d="M30 33.3333C39.1867 33.3333 46.6667 25.86 46.6667 16.6667C46.6667 7.47333 39.1867 0 30 0C20.8133 0 13.3333 7.47333 13.3333 16.6667C13.3333 25.86 20.8133 33.3333 30 33.3333ZM30 6.66667C35.5133 6.66667 40 11.1533 40 16.6667C40 22.18 35.5133 26.6667 30 26.6667C24.4867 26.6667 20 22.18 20 16.6667C20 11.1533 24.4867 6.66667 30 6.66667ZM46.6667 63.3333V156.667C46.6667 158.507 45.1733 160 43.3333 160C41.4933 160 40 158.507 40 156.667V113.333H23.3333C22.1933 113.333 21.1 113.153 20 112.993V156.667C20 158.507 18.5067 160 16.6667 160C14.8267 160 13.3333 158.507 13.3333 156.667V110.993C5.48 107.233 0 99.2733 0 90V63.3333C0 50.4667 10.4667 40 23.3333 40H96.6667C98.5067 40 100 41.4933 100 43.3333C100 45.1733 98.5067 46.6667 96.6667 46.6667H23.3333C14.1467 46.6667 6.66667 54.14 6.66667 63.3333V90C6.66667 99.1933 14.1467 106.667 23.3333 106.667H40V63.3333C40 61.4933 41.4933 60 43.3333 60C45.1733 60 46.6667 61.4933 46.6667 63.3333ZM143.333 106.667H133.247C135.36 103.873 136.667 100.433 136.667 96.6667V76.6667C136.667 67.4733 129.187 60 120 60H100C90.8133 60 83.3333 67.4733 83.3333 76.6667V96.6667C83.3333 100.433 84.6333 103.873 86.7533 106.667H76.6667C67.48 106.667 60 114.14 60 123.333V143.333C60 152.527 67.48 160 76.6667 160H96.6667C102.14 160 106.96 157.313 110 153.233C113.04 157.32 117.86 160 123.333 160H143.333C152.52 160 160 152.527 160 143.333V123.333C160 114.14 152.52 106.667 143.333 106.667ZM90 76.6667C90 71.1533 94.4867 66.6667 100 66.6667H120C125.513 66.6667 130 71.1533 130 76.6667V96.6667C130 102.18 125.513 106.667 120 106.667H100C94.4867 106.667 90 102.18 90 96.6667V76.6667ZM96.6667 153.333H76.6667C71.1533 153.333 66.6667 148.847 66.6667 143.333V123.333C66.6667 117.82 71.1533 113.333 76.6667 113.333H96.6667C102.18 113.333 106.667 117.82 106.667 123.333V143.333C106.667 148.847 102.18 153.333 96.6667 153.333ZM153.333 143.333C153.333 148.847 148.847 153.333 143.333 153.333H123.333C117.82 153.333 113.333 148.847 113.333 143.333V123.333C113.333 117.82 117.82 113.333 123.333 113.333H143.333C148.847 113.333 153.333 117.82 153.333 123.333V143.333ZM103.333 76.6667C103.333 74.8267 104.827 73.3333 106.667 73.3333H113.333C115.173 73.3333 116.667 74.8267 116.667 76.6667C116.667 78.5067 115.173 80 113.333 80H106.667C104.827 80 103.333 78.5067 103.333 76.6667ZM140 123.333C140 125.173 138.507 126.667 136.667 126.667H130C128.16 126.667 126.667 125.173 126.667 123.333C126.667 121.493 128.16 120 130 120H136.667C138.507 120 140 121.493 140 123.333ZM93.3333 123.333C93.3333 125.173 91.84 126.667 90 126.667H83.3333C81.4933 126.667 80 125.173 80 123.333C80 121.493 81.4933 120 83.3333 120H90C91.84 120 93.3333 121.493 93.3333 123.333Z" fill="#2B75FF"/>
</svg>
