<svg width="175" height="175" viewBox="0 0 175 175" fill="none" xmlns="http://www.w3.org/2000/svg">
<path d="M133.5 55.3193C132.786 55.3201 132.079 55.1775 131.419 54.8998C130.76 54.622 130.161 54.2146 129.657 53.7008L123.932 47.8858C122.913 46.8496 122.34 45.4445 122.34 43.9793C122.341 42.5142 122.913 41.1092 123.933 40.0734C124.953 39.0375 126.335 38.4557 127.777 38.4559C129.218 38.4561 130.601 39.0383 131.62 40.0745L133.502 41.9841L143.972 31.3462C144.996 30.3363 146.371 29.7764 147.798 29.7875C149.225 29.7986 150.59 30.3797 151.6 31.4054C152.609 32.4311 153.181 33.819 153.191 35.2694C153.202 36.7199 152.651 38.1164 151.657 39.1575L137.342 53.7008C136.838 54.2145 136.239 54.622 135.58 54.8997C134.92 55.1775 134.214 55.32 133.5 55.3193Z" fill="#2B75FF"/>
<path d="M136.702 81.9151C129.128 81.9151 121.723 79.669 115.425 75.4607C109.127 71.2525 104.218 65.2712 101.32 58.2732C98.4208 51.2752 97.6624 43.5747 99.1401 36.1457C100.618 28.7166 104.265 21.8926 109.621 16.5365C114.977 11.1805 121.802 7.53297 129.231 6.05524C136.66 4.5775 144.36 5.33593 151.358 8.2346C158.356 11.1333 164.337 16.042 168.546 22.3401C172.754 28.6381 175 36.0426 175 43.6172C174.988 53.7708 170.95 63.5052 163.77 70.6849C156.59 77.8646 146.856 81.9034 136.702 81.9151ZM136.702 16.2616C131.292 16.2616 126.003 17.866 121.504 20.8719C117.006 23.8777 113.499 28.1501 111.429 33.1487C109.358 38.1473 108.817 43.6476 109.872 48.954C110.928 54.2605 113.533 59.1348 117.359 62.9606C121.185 66.7863 126.059 69.3917 131.365 70.4472C136.672 71.5027 142.172 70.961 147.171 68.8905C152.169 66.82 156.442 63.3138 159.447 58.8152C162.453 54.3166 164.058 49.0277 164.058 43.6172C164.049 36.3647 161.164 29.4116 156.036 24.2833C150.908 19.155 143.955 16.2701 136.702 16.2616Z" fill="#2B75FF"/>
<path d="M129.43 144.149C128.344 144.149 127.281 143.826 126.378 143.222C125.474 142.618 124.77 141.76 124.354 140.756C123.939 139.751 123.83 138.646 124.042 137.58C124.254 136.514 124.777 135.535 125.545 134.766L140.02 120.295C140.527 119.77 141.133 119.351 141.804 119.063C142.474 118.775 143.195 118.623 143.925 118.617C144.655 118.611 145.378 118.75 146.054 119.026C146.729 119.303 147.342 119.711 147.858 120.227C148.374 120.743 148.783 121.357 149.059 122.032C149.335 122.708 149.474 123.431 149.468 124.161C149.462 124.891 149.31 125.612 149.022 126.283C148.734 126.954 148.315 127.56 147.79 128.067L133.315 142.538C132.806 143.05 132.2 143.455 131.534 143.732C130.867 144.008 130.152 144.15 129.43 144.149Z" fill="#2B75FF"/>
<path d="M143.974 144.149C143.252 144.15 142.537 144.008 141.87 143.732C141.203 143.455 140.598 143.05 140.088 142.538L125.614 128.067C125.089 127.56 124.67 126.954 124.382 126.283C124.094 125.612 123.943 124.891 123.936 124.161C123.93 123.431 124.069 122.708 124.345 122.032C124.622 121.357 125.03 120.743 125.546 120.227C126.062 119.711 126.675 119.303 127.351 119.026C128.026 118.75 128.75 118.611 129.48 118.617C130.209 118.623 130.93 118.775 131.601 119.063C132.271 119.351 132.878 119.77 133.385 120.295L147.859 134.766C148.627 135.535 149.151 136.514 149.363 137.58C149.574 138.646 149.466 139.751 149.05 140.756C148.634 141.76 147.93 142.618 147.026 143.222C146.123 143.826 145.06 144.149 143.974 144.149Z" fill="#2B75FF"/>
<path d="M136.702 169.681C129.128 169.681 121.723 167.435 115.425 163.227C109.127 159.018 104.218 153.037 101.32 146.039C98.4208 139.041 97.6624 131.341 99.1401 123.912C100.618 116.482 104.265 109.658 109.621 104.302C114.977 98.9464 121.802 95.2988 129.231 93.8211C136.66 92.3434 144.36 93.1018 151.358 96.0005C158.356 98.8991 164.337 103.808 168.546 110.106C172.754 116.404 175 123.808 175 131.383C174.988 141.537 170.95 151.271 163.77 158.451C156.59 165.631 146.856 169.669 136.702 169.681ZM136.702 104.027C131.292 104.027 126.003 105.632 121.504 108.638C117.006 111.644 113.499 115.916 111.429 120.915C109.358 125.913 108.817 131.413 109.872 136.72C110.928 142.026 113.533 146.901 117.359 150.726C121.185 154.552 126.059 157.158 131.365 158.213C136.672 159.269 142.172 158.727 147.171 156.656C152.169 154.586 156.442 151.08 159.447 146.581C162.453 142.082 164.058 136.794 164.058 131.383C164.049 124.131 161.164 117.178 156.036 112.049C150.908 106.921 143.955 104.036 136.702 104.027Z" fill="#2B75FF"/>
<path d="M76.6583 43.617H16.4268C12.0716 43.6123 7.89616 41.8875 4.81658 38.8211C1.73699 35.7547 0.00478282 31.5972 0 27.2606L0 16.3564C0.00478282 12.0199 1.73699 7.86232 4.81658 4.79593C7.89616 1.72955 12.0716 0.00476232 16.4268 0H76.6583C81.0135 0.00476232 85.1889 1.72955 88.2685 4.79593C91.3481 7.86232 93.0803 12.0199 93.0851 16.3564V27.2606C93.0803 31.5972 91.3481 35.7547 88.2685 38.8211C85.1889 41.8875 81.0135 43.6123 76.6583 43.617ZM16.4268 10.9043C14.975 10.9056 13.583 11.4804 12.5564 12.5026C11.5298 13.5248 10.9525 14.9108 10.9512 16.3564V27.2606C10.9525 28.7062 11.5298 30.0922 12.5564 31.1144C13.583 32.1366 14.975 32.7115 16.4268 32.7128H76.6583C78.1101 32.7115 79.5021 32.1366 80.5287 31.1144C81.5553 30.0922 82.1326 28.7062 82.1339 27.2606V16.3564C82.1326 14.9108 81.5553 13.5248 80.5287 12.5026C79.5021 11.4804 78.1101 10.9056 76.6583 10.9043H16.4268Z" fill="#2B75FF"/>
<path d="M46.5425 175C38.5748 174.99 30.9362 171.822 25.3022 166.19C19.6682 160.558 16.4989 152.922 16.4893 144.957V38.4411C16.4893 36.9924 17.065 35.603 18.0898 34.5786C19.1145 33.5543 20.5043 32.9788 21.9535 32.9788H71.1315C72.5807 32.9788 73.9705 33.5543 74.9953 34.5786C76.02 35.603 76.5957 36.9924 76.5957 38.4411V144.957C76.5862 152.922 73.4168 160.558 67.7828 166.19C62.1488 171.822 54.5102 174.99 46.5425 175ZM27.4178 43.9035V144.957C27.4178 150.028 29.4327 154.89 33.0193 158.476C36.6059 162.061 41.4703 164.075 46.5425 164.075C51.6147 164.075 56.4792 162.061 60.0658 158.476C63.6523 154.89 65.6673 150.028 65.6673 144.957V43.9035H27.4178Z" fill="#2B75FF"/>
<path d="M71.0993 65.4254H49.1135C47.6557 65.4254 46.2577 64.865 45.2269 63.8675C44.1961 62.8699 43.617 61.517 43.617 60.1063C43.617 58.6955 44.1961 57.3426 45.2269 56.3451C46.2577 55.3475 47.6557 54.7871 49.1135 54.7871H71.0993C72.557 54.7871 73.9551 55.3475 74.9859 56.3451C76.0166 57.3426 76.5957 58.6955 76.5957 60.1063C76.5957 61.517 76.0166 62.8699 74.9859 63.8675C73.9551 64.865 72.557 65.4254 71.0993 65.4254Z" fill="#2B75FF"/>
<path d="M71.1315 87.7659H21.9535C20.5043 87.7659 19.1145 87.1775 18.0898 86.1301C17.065 85.0827 16.4893 83.6621 16.4893 82.1808C16.4893 80.6995 17.065 79.279 18.0898 78.2315C19.1145 77.1841 20.5043 76.5957 21.9535 76.5957H71.1315C72.5807 76.5957 73.9705 77.1841 74.9953 78.2315C76.02 79.279 76.5957 80.6995 76.5957 82.1808C76.5957 83.6621 76.02 85.0827 74.9953 86.1301C73.9705 87.1775 72.5807 87.7659 71.1315 87.7659Z" fill="#2B75FF"/>
<path d="M71.0993 109.575H49.1135C47.6557 109.575 46.2577 108.986 45.2269 107.939C44.1961 106.891 43.617 105.471 43.617 103.989C43.617 102.508 44.1961 101.088 45.2269 100.04C46.2577 98.9927 47.6557 98.4043 49.1135 98.4043H71.0993C72.557 98.4043 73.9551 98.9927 74.9859 100.04C76.0166 101.088 76.5957 102.508 76.5957 103.989C76.5957 105.471 76.0166 106.891 74.9859 107.939C73.9551 108.986 72.557 109.575 71.0993 109.575Z" fill="#2B75FF"/>
<path d="M71.0993 153.191H49.1135C47.6557 153.191 46.2577 152.603 45.2269 151.556C44.1961 150.508 43.617 149.088 43.617 147.606C43.617 146.125 44.1961 144.704 45.2269 143.657C46.2577 142.61 47.6557 142.021 49.1135 142.021H71.0993C72.557 142.021 73.9551 142.61 74.9859 143.657C76.0166 144.704 76.5957 146.125 76.5957 147.606C76.5957 149.088 76.0166 150.508 74.9859 151.556C73.9551 152.603 72.557 153.191 71.0993 153.191Z" fill="#2B75FF"/>
<path d="M71.1436 131.383H60.2394C58.7934 131.383 57.4066 130.795 56.3841 129.747C55.3617 128.7 54.7872 127.279 54.7872 125.798C54.7872 124.317 55.3617 122.896 56.3841 121.849C57.4066 120.801 58.7934 120.213 60.2394 120.213H71.1436C72.5896 120.213 73.9764 120.801 74.9989 121.849C76.0213 122.896 76.5957 124.317 76.5957 125.798C76.5957 127.279 76.0213 128.7 74.9989 129.747C73.9764 130.795 72.5896 131.383 71.1436 131.383Z" fill="#2B75FF"/>
</svg>
