<svg width="314" height="281" viewBox="0 0 314 281" fill="none" xmlns="http://www.w3.org/2000/svg">
<path d="M209.923 38.2549H183.68C183.432 34.3034 179.797 31.1465 175.325 31.1465H163.399C159.481 31.1465 155.953 29.0412 154.621 25.9129C151.274 18.0284 144.057 13.6866 134.293 13.6866C124.529 13.6866 117.312 18.0284 113.965 25.9112C112.638 29.044 109.11 31.1471 105.188 31.1471H93.266C88.794 31.1471 85.1584 34.3039 84.9113 38.2555H58.6671C46.7713 38.2555 37.0938 46.916 37.0938 57.5594V247.962C37.0938 258.621 46.7713 267.293 58.6671 267.293C234.631 267.291 220.586 267.463 225.927 266.858C251.932 263.903 273.177 244.876 276.433 221.615C280.27 194.215 260.351 169.752 231.552 163.803V57.5594C231.552 46.9154 221.849 38.2549 209.923 38.2549ZM222.697 57.5594V162.624C219.942 162.44 217.156 162.453 214.351 162.614V65.322C214.351 58.8574 208.475 53.5969 201.249 53.5969H183.727V46.18H209.923C216.967 46.18 222.697 51.2847 222.697 57.5594ZM169.646 244.026H67.3414C65.0017 244.026 63.095 242.321 63.095 240.226V65.322C63.095 63.1915 64.9588 61.522 67.3414 61.522H84.8628V63.1959C84.8628 67.3423 88.6333 70.7148 93.2648 70.7148H175.316C179.952 70.7148 183.727 67.3384 183.727 63.1882V61.5225H201.248C203.631 61.5225 205.495 63.192 205.495 65.3226V163.657C181.874 168.361 163.174 186.381 160.138 208.106C158.34 220.981 161.811 233.598 169.646 244.026ZM105.187 39.0716C112.763 39.0716 119.617 34.9137 122.242 28.724C124.274 23.9393 128.218 21.6112 134.293 21.6112C140.369 21.6112 144.312 23.9388 146.345 28.7278C148.974 34.9153 155.828 39.0716 163.4 39.0716H174.872C174.872 39.5562 174.872 63.7776 174.872 62.7892H93.7192C93.7192 61.9994 93.7192 37.8214 93.7192 39.0716H105.187ZM58.6671 259.367C51.653 259.367 45.9495 254.252 45.9495 247.961V57.5594C45.9495 51.2847 51.653 46.1806 58.6671 46.1806H84.8628V53.5969H67.3414C60.1157 53.5969 54.2393 58.8558 54.2393 65.322V240.226C54.2393 246.692 60.1157 251.951 67.3414 251.951H176.843C176.85 251.958 176.856 251.965 176.864 251.972C180.072 254.838 183.614 257.277 187.365 259.367H58.6671ZM267.646 220.628C264.884 240.355 246.868 256.49 224.811 258.994C192.271 262.712 164.848 238.275 168.925 209.088C171.684 189.354 189.681 173.214 211.726 170.71C244.27 166.999 271.737 191.439 267.646 220.628Z" fill="#2B75FF"/>
<path d="M213.862 187.981V210.889H197.193C194.745 210.889 192.765 212.664 192.765 214.852C192.765 217.04 194.745 218.814 197.193 218.814H218.29C220.738 218.814 222.718 217.04 222.718 214.852V187.981C222.718 185.793 220.738 184.018 218.29 184.018C215.842 184.018 213.862 185.793 213.862 187.981Z" fill="#2B75FF"/>
<path d="M84.154 94.6542H184.432C186.879 94.6542 188.859 92.8798 188.859 90.6917C188.859 88.5035 186.879 86.7291 184.432 86.7291H84.154C81.7064 86.7291 79.7261 88.5035 79.7261 90.6917C79.7261 92.8798 81.7064 94.6542 84.154 94.6542Z" fill="#2B75FF"/>
<path d="M84.154 126.527H184.432C186.879 126.527 188.859 124.753 188.859 122.565C188.859 120.377 186.879 118.602 184.432 118.602H84.154C81.7064 118.602 79.7261 120.377 79.7261 122.565C79.7261 124.753 81.7064 126.527 84.154 126.527Z" fill="#2B75FF"/>
<path d="M188.86 154.438C188.86 152.25 186.88 150.475 184.432 150.475H84.1545C81.7068 150.475 79.7266 152.25 79.7266 154.438C79.7266 156.626 81.7068 158.401 84.1545 158.401H184.432C186.879 158.401 188.86 156.626 188.86 154.438Z" fill="#2B75FF"/>
<path d="M134.293 182.348H84.154C81.7064 182.348 79.7261 184.123 79.7261 186.311C79.7261 188.499 81.7064 190.273 84.154 190.273H134.293C136.74 190.273 138.721 188.499 138.721 186.311C138.721 184.123 136.74 182.348 134.293 182.348Z" fill="#2B75FF"/>
<path d="M134.293 43.0962C136.74 43.0962 138.721 41.3218 138.721 39.1336V34.1338C138.721 31.9456 136.74 30.1713 134.293 30.1713C131.845 30.1713 129.865 31.9456 129.865 34.1338V39.1336C129.865 41.3218 131.846 43.0962 134.293 43.0962Z" fill="#2B75FF"/>
</svg>
