<svg width="130" height="156" viewBox="0 0 130 156" fill="none" xmlns="http://www.w3.org/2000/svg">
<path d="M97.9413 52.607C96.4706 52.607 95.0798 52.9424 93.8174 53.5111L83.3573 41.3625C84.7336 39.6322 85.5937 37.4669 85.5937 35.0853C85.5937 29.5008 81.0627 24.9563 75.4947 24.9563C69.9266 24.9563 65.3956 29.5008 65.3956 35.0853C65.3956 37.6613 66.389 39.987 67.9713 41.7757L58.0612 53.2851C56.9515 52.8647 55.7642 52.6046 54.5091 52.6046C52.9874 52.6046 51.5603 52.9691 50.264 53.5743L39.8378 41.467C41.2674 39.7197 42.1615 37.5155 42.1615 35.0829C42.1615 29.4983 37.6305 24.9539 32.06 24.9539C26.4919 24.9539 21.9609 29.4983 21.9609 35.0829C21.9609 40.6675 26.4919 45.212 32.06 45.212C33.4484 45.212 34.7713 44.9276 35.9756 44.4173L46.4962 56.6339C45.2048 58.335 44.4076 60.4323 44.4076 62.7312C44.4076 68.3158 48.9386 72.8603 54.5067 72.8603C60.0771 72.8603 64.6081 68.3158 64.6081 62.7312C64.6081 60.1722 63.6268 57.8587 62.0591 56.0725L71.9862 44.5437C73.0838 44.9544 74.2541 45.2095 75.4923 45.2095C76.9291 45.2095 78.2908 44.896 79.5314 44.3517L90.0181 56.5294C88.6758 58.25 87.8447 60.3837 87.8447 62.7312C87.8447 68.3158 92.3757 72.8603 97.9438 72.8603C103.512 72.8603 108.043 68.3158 108.043 62.7312C108.043 57.1467 103.509 52.607 97.9413 52.607ZM26.8069 35.0853C26.8069 32.1788 29.1645 29.8167 32.06 29.8167C34.9579 29.8167 37.3155 32.1813 37.3155 35.0853C37.3155 37.9894 34.9579 40.354 32.06 40.354C29.1621 40.354 26.8069 37.9919 26.8069 35.0853ZM54.5067 68.0048C51.6112 68.0048 49.2536 65.6402 49.2536 62.7361C49.2536 59.8296 51.6112 57.4674 54.5067 57.4674C57.4046 57.4674 59.7621 59.832 59.7621 62.7361C59.7621 65.6426 57.407 68.0048 54.5067 68.0048ZM70.2392 35.0853C70.2392 32.1788 72.5968 29.8167 75.4923 29.8167C78.3877 29.8167 80.7453 32.1813 80.7453 35.0853C80.7453 37.9894 78.3877 40.354 75.4923 40.354C72.5968 40.354 70.2392 37.9919 70.2392 35.0853ZM97.9413 68.0048C95.0459 68.0048 92.6883 65.6402 92.6883 62.7361C92.6883 59.8296 95.0459 57.4674 97.9413 57.4674C100.837 57.4674 103.194 59.832 103.194 62.7361C103.194 65.6426 100.837 68.0048 97.9413 68.0048Z" fill="#2B75FF" stroke="white" stroke-width="0.2"/>
<path d="M48.0144 81.4038L44.2913 78.0994L41.1587 81.9901L33.5996 91.3784L32.769 90.5541L29.2332 87.0387L25.8917 90.7455L22.8791 94.0867L19.7129 97.5996L23.0639 100.929L30.9999 108.816L34.7398 112.532L38.0549 108.416L51.9224 91.1944L54.8942 87.5048L51.3655 84.3721L48.0144 81.4038ZM34.3438 105.3L26.4078 97.4132L29.4204 94.072L33.9909 98.6153L44.865 85.1105L48.2113 88.0813L34.3438 105.3Z" fill="#2B75FF" stroke="white" stroke-width="0.2"/>
<path d="M48.0144 112.093L44.2913 108.789L41.1587 112.68L33.5996 122.068L32.769 121.244L29.2332 117.728L25.8917 121.435L22.8791 124.776L19.7129 128.289L23.0639 131.618L30.9999 139.505L34.7398 143.222L38.0549 139.105L51.9224 121.884L54.8942 118.195L51.3655 115.062L48.0144 112.093ZM34.3438 135.99L26.4078 128.103L29.4204 124.762L33.9909 129.305L44.865 115.8L48.2113 118.771L34.3438 135.99Z" fill="#2B75FF" stroke="white" stroke-width="0.2"/>
<path d="M62.3809 88.5786H107.293V93.0698H62.3809V88.5786Z" fill="#2B75FF" stroke="white" stroke-width="0.2"/>
<path d="M62.3809 96.8137H107.293V102.053H62.3809V96.8137Z" fill="#2B75FF" stroke="white" stroke-width="0.2"/>
<path d="M62.3809 119.27H107.293V123.761H62.3809V119.27Z" fill="#2B75FF" stroke="white" stroke-width="0.2"/>
<path d="M62.3809 127.503H107.293V132.743H62.3809V127.503Z" fill="#2B75FF" stroke="white" stroke-width="0.2"/>
<path d="M119.34 1H34.7823L21.0718 16.0657H1V145.561C1 150.862 5.34717 155.199 10.6604 155.199H119.34C124.653 155.199 129 150.862 129 145.561V10.6374C129 5.33684 124.653 1 119.34 1ZM124.17 145.561C124.17 148.219 122.003 150.38 119.34 150.38H10.6604C7.99653 150.38 5.83019 148.219 5.83019 145.561V20.8844H21.0718H23.2092L24.6462 19.3039L36.9197 5.81871H119.34C122.003 5.81871 124.17 7.97991 124.17 10.6374V145.561Z" fill="#2B75FF" stroke="white" stroke-width="0.2"/>
</svg>
