<svg width="164" height="164" viewBox="0 0 164 164" fill="none" xmlns="http://www.w3.org/2000/svg">
<path fill-rule="evenodd" clip-rule="evenodd" d="M111.936 163.872H51.84C50.304 163.872 48.96 162.528 48.96 160.992V146.304C48.96 136.608 56.832 128.736 66.528 128.736H97.344C106.944 128.736 114.816 136.608 114.816 146.304V160.992C114.816 162.528 113.568 163.872 111.936 163.872ZM54.72 158.112H109.056V146.304C109.056 139.776 103.776 134.496 97.344 134.496H66.528C60 134.496 54.72 139.776 54.72 146.304V158.112Z" fill="#2B75FF"/>
<path fill-rule="evenodd" clip-rule="evenodd" d="M81.888 121.44C72.96 121.44 65.76 114.144 65.76 105.216C65.76 96.2879 72.96 88.9919 81.888 88.9919C90.816 88.9919 98.112 96.2879 98.112 105.216C98.112 114.144 90.816 121.44 81.888 121.44ZM81.888 94.7519C76.128 94.7519 71.52 99.4559 71.52 105.216C71.52 110.976 76.128 115.68 81.888 115.68C87.648 115.68 92.352 110.976 92.352 105.216C92.352 99.4559 87.648 94.7519 81.888 94.7519Z" fill="#2B75FF"/>
<path fill-rule="evenodd" clip-rule="evenodd" d="M160.992 163.872H108.288C106.656 163.872 105.408 162.528 105.408 160.992C105.408 159.36 106.656 158.112 108.288 158.112H158.112V148.128C158.112 142.656 153.6 138.144 148.128 138.144H121.056C117.984 138.144 115.008 139.68 113.088 142.176C112.128 143.52 110.304 143.808 109.056 142.848C107.808 141.888 107.52 140.064 108.48 138.816C111.456 134.784 116.16 132.384 121.056 132.384H148.128C156.768 132.384 163.776 139.488 163.776 148.128V160.992C163.872 162.528 162.528 163.872 160.992 163.872Z" fill="#2B75FF"/>
<path fill-rule="evenodd" clip-rule="evenodd" d="M134.592 126.624C126.624 126.624 120.096 120.096 120.096 112.128C120.096 104.064 126.624 97.5359 134.592 97.5359C142.656 97.5359 149.184 104.064 149.184 112.128C149.184 120.096 142.656 126.624 134.592 126.624ZM134.592 103.296C129.792 103.296 125.856 107.232 125.856 112.128C125.856 116.928 129.792 120.864 134.592 120.864C139.488 120.864 143.424 116.928 143.424 112.128C143.424 107.232 139.488 103.296 134.592 103.296Z" fill="#2B75FF"/>
<path fill-rule="evenodd" clip-rule="evenodd" d="M55.584 163.872H2.88C1.344 163.872 0 162.528 0 160.992V148.128C0 139.488 7.104 132.384 15.744 132.384H42.72C47.712 132.384 52.416 134.784 55.392 138.816C56.352 140.064 56.064 141.888 54.816 142.848C53.472 143.808 51.744 143.52 50.784 142.176C48.864 139.68 45.888 138.144 42.72 138.144H15.744C10.272 138.144 5.76 142.656 5.76 148.128V158.112H55.584C57.12 158.112 58.464 159.36 58.464 160.992C58.464 162.528 57.12 163.872 55.584 163.872Z" fill="#2B75FF"/>
<path fill-rule="evenodd" clip-rule="evenodd" d="M29.28 126.624C21.216 126.624 14.688 120.096 14.688 112.128C14.688 104.064 21.216 97.5359 29.28 97.5359C37.248 97.5359 43.776 104.064 43.776 112.128C43.776 120.096 37.248 126.624 29.28 126.624ZM29.28 103.296C24.384 103.296 20.448 107.232 20.448 112.128C20.448 116.928 24.384 120.864 29.28 120.864C34.08 120.864 38.016 116.928 38.016 112.128C38.016 107.232 34.08 103.296 29.28 103.296Z" fill="#2B75FF"/>
<path fill-rule="evenodd" clip-rule="evenodd" d="M42.24 87.0719H30.912C29.376 87.0719 28.032 85.8239 28.032 84.1919V78.1439C26.304 77.5679 24.672 76.8959 23.04 76.0319L18.816 80.3519C17.664 81.5039 15.84 81.5039 14.688 80.3519L6.72 72.3839C5.664 71.2319 5.568 69.4079 6.72 68.3519L11.04 64.0319C10.176 62.3999 9.504 60.7679 8.928 59.0399H2.88C1.344 59.0399 0 57.6959 0 56.1599V44.9279C0 43.2959 1.344 42.0479 2.88 42.0479H8.928C9.504 40.3199 10.176 38.5919 11.04 37.0559L6.72 32.7359C5.664 31.5839 5.664 29.7599 6.72 28.6079L14.688 20.7359C15.264 20.1599 15.936 19.8719 16.704 19.8719C17.472 19.8719 18.24 20.1599 18.816 20.7359L23.04 24.9599C24.672 24.0959 26.304 23.4239 28.032 22.9439V16.7999C28.032 15.2639 29.376 13.9199 30.912 13.9199H42.24C43.776 13.9199 45.12 15.2639 45.12 16.7999V22.9439C46.848 23.4239 48.48 24.0959 50.112 24.9599L54.336 20.7359C55.488 19.5839 57.312 19.5839 58.464 20.7359L66.432 28.6079C67.488 29.7599 67.488 31.5839 66.432 32.7359L62.112 37.0559C62.976 38.5919 63.648 40.3199 64.224 42.0479H70.272C71.808 42.0479 73.152 43.2959 73.152 44.9279V56.1599C73.152 57.6959 71.808 59.0399 70.272 59.0399H64.224C63.648 60.7679 62.976 62.3999 62.112 64.0319L66.432 68.3519C66.912 68.8319 67.2 69.5999 67.2 70.3679C67.2 71.1359 66.912 71.8079 66.432 72.3839L58.464 80.3519C57.312 81.4079 55.488 81.4079 54.336 80.3519L50.112 76.0319C48.48 76.8959 46.848 77.5679 45.12 78.1439V84.1919C45.12 85.8239 43.776 87.0719 42.24 87.0719ZM33.792 81.3119H39.36V75.9359C39.36 74.5919 40.224 73.4399 41.568 73.1519C44.256 72.4799 46.752 71.5199 48.96 70.0799C50.112 69.3119 51.648 69.5039 52.608 70.4639L56.352 74.2079L60.288 70.3679L56.448 66.5279C55.488 65.5679 55.392 64.1279 56.064 62.9759C57.504 60.6719 58.56 58.1759 59.136 55.4879C59.424 54.2399 60.576 53.2799 61.92 53.2799H67.392V47.8079H61.92C60.576 47.8079 59.424 46.8479 59.136 45.5039C58.56 42.9119 57.504 40.4159 56.064 38.1119C55.392 36.9599 55.488 35.4239 56.448 34.4639L60.288 30.7199L56.352 26.7839L52.608 30.6239C51.648 31.5839 50.112 31.7759 48.96 31.0079C46.752 29.5679 44.256 28.5119 41.568 27.9359C40.224 27.6479 39.36 26.4959 39.36 25.1519V19.7759H33.792V25.1519C33.792 26.4959 32.832 27.6479 31.584 27.9359C28.896 28.5119 26.4 29.5679 24.096 31.0079C23.04 31.7759 21.504 31.5839 20.544 30.6239L16.704 26.7839L12.864 30.7199L16.704 34.5599C17.664 35.4239 17.76 36.9599 17.088 38.1119C15.552 40.4159 14.592 42.9119 14.016 45.5039C13.728 46.8479 12.48 47.8079 11.136 47.8079H5.76V53.2799H11.136C12.48 53.2799 13.728 54.2399 14.016 55.4879C14.592 58.1759 15.552 60.6719 17.088 62.9759C17.76 64.1279 17.664 65.5679 16.704 66.5279L12.864 70.3679L16.704 74.2079L20.544 70.4639C21.504 69.5039 23.04 69.3119 24.096 70.0799C26.4 71.5199 28.896 72.4799 31.584 73.1519C32.832 73.4399 33.792 74.5919 33.792 75.9359V81.3119Z" fill="#2B75FF"/>
<path fill-rule="evenodd" clip-rule="evenodd" d="M36.576 66.048C28.032 66.048 21.024 59.04 21.024 50.496C21.024 41.952 28.032 35.04 36.576 35.04C45.12 35.04 52.032 41.952 52.032 50.496C52.032 59.04 45.12 66.048 36.576 66.048ZM36.576 40.8C31.2 40.8 26.784 45.12 26.784 50.496C26.784 55.872 31.2 60.288 36.576 60.288C41.952 60.288 46.272 55.872 46.272 50.496C46.272 45.12 41.952 40.8 36.576 40.8Z" fill="#2B75FF"/>
<path fill-rule="evenodd" clip-rule="evenodd" d="M130.56 78.816H118.368C116.736 78.816 115.488 77.472 115.488 75.936V69.12C113.472 68.544 111.552 67.776 109.728 66.816L105.024 71.52C103.872 72.672 102.048 72.672 100.896 71.52L92.256 62.976C91.776 62.4 91.392 61.632 91.392 60.864C91.392 60.096 91.776 59.424 92.256 58.848L97.056 54.048C96.096 52.224 95.232 50.4 94.656 48.384H87.936C86.304 48.384 85.056 47.136 85.056 45.504V33.312C85.056 31.68 86.304 30.432 87.936 30.432H94.656C95.232 28.416 96.096 26.496 97.056 24.672L92.256 19.968C91.104 18.816 91.104 16.992 92.256 15.84L100.896 7.2C101.952 6.144 103.872 6.144 105.024 7.2L109.728 12C111.552 11.04 113.472 10.272 115.488 9.6V2.88C115.488 1.344 116.736 0 118.368 0H130.56C132.096 0 133.44 1.344 133.44 2.88V9.6C135.36 10.272 137.28 11.04 139.104 12L143.904 7.2C145.056 6.144 146.88 6.144 147.936 7.2L156.576 15.84C157.728 16.992 157.728 18.816 156.576 19.968L151.872 24.672C152.832 26.496 153.6 28.416 154.176 30.432H160.992C162.528 30.432 163.872 31.68 163.872 33.312V45.504C163.872 47.136 162.528 48.384 160.992 48.384H154.176C153.6 50.4 152.832 52.224 151.872 54.048L156.576 58.848C157.728 60 157.728 61.824 156.576 62.976L147.936 71.52C146.88 72.672 145.056 72.672 143.904 71.52L139.104 66.816C137.28 67.776 135.36 68.544 133.44 69.12V75.936C133.44 77.472 132.096 78.816 130.56 78.816ZM121.248 73.056H127.68V66.912C127.68 65.568 128.64 64.416 129.888 64.128C132.768 63.456 135.552 62.4 138.048 60.768C139.2 60 140.64 60.192 141.6 61.152L145.92 65.472L150.528 60.864L146.208 56.544C145.248 55.584 145.056 54.144 145.824 52.992C147.36 50.496 148.512 47.808 149.184 44.928C149.472 43.584 150.624 42.624 151.968 42.624H158.112V36.192H151.968C150.624 36.192 149.472 35.232 149.184 33.888C148.512 31.008 147.36 28.32 145.824 25.824C145.056 24.672 145.248 23.136 146.208 22.176L150.528 17.856L145.92 13.344L141.6 17.664C140.64 18.624 139.2 18.816 138.048 18.048C135.552 16.416 132.768 15.36 129.888 14.688C128.64 14.4 127.68 13.248 127.68 11.904V5.76H121.248V11.904C121.248 13.248 120.288 14.4 118.944 14.688C116.064 15.36 113.376 16.416 110.88 18.048C109.728 18.816 108.192 18.624 107.232 17.664L102.912 13.344L98.4 17.856L102.72 22.176C103.68 23.136 103.776 24.672 103.104 25.824C101.472 28.32 100.32 31.008 99.744 33.888C99.456 35.232 98.208 36.192 96.864 36.192H90.816V42.624H96.864C98.304 42.624 99.456 43.584 99.744 44.928C100.32 47.808 101.472 50.496 103.104 52.992C103.776 54.144 103.68 55.584 102.72 56.544L98.4 60.864L102.912 65.472L107.232 61.152C108.192 60.192 109.728 60 110.88 60.768C113.376 62.4 116.064 63.456 118.944 64.128C120.288 64.416 121.248 65.568 121.248 66.912V73.056Z" fill="#2B75FF"/>
<path fill-rule="evenodd" clip-rule="evenodd" d="M124.416 55.9679C115.296 55.9679 107.904 48.5759 107.904 39.3599C107.904 30.2399 115.296 22.8479 124.416 22.8479C133.536 22.8479 141.024 30.2399 141.024 39.3599C141.024 48.5759 133.536 55.9679 124.416 55.9679ZM124.416 28.6079C118.464 28.6079 113.664 33.4079 113.664 39.3599C113.664 45.3119 118.464 50.2079 124.416 50.2079C130.368 50.2079 135.264 45.3119 135.264 39.3599C135.264 33.4079 130.368 28.6079 124.416 28.6079Z" fill="#2B75FF"/>
</svg>
